# Blender 5.0.1
# www.blender.org
o Black_Trumpet_0
v -0.031482 -0.068391 0.035876
v -0.089795 0.322919 0.089801
v -0.031482 -0.068391 -0.030327
v -0.085034 0.371482 -0.107511
v 0.034721 -0.068391 0.035876
v 0.113403 0.322341 0.094562
v 0.034721 -0.068391 -0.030327
v 0.118165 0.370905 -0.102749
v -0.196848 0.431724 0.130248
v -0.196848 0.501479 -0.109945
v 0.200463 0.501479 -0.109945
v 0.200463 0.431724 0.130248
v 0.050453 -0.038313 -0.047190
v 0.017648 0.372095 -0.151211
v -0.048268 -0.038313 0.052739
v 0.011076 0.305066 0.121126
v 0.001808 0.528264 -0.209748
v 0.001808 0.425215 0.242715
v -0.318004 0.454146 0.229246
v -0.329706 0.577157 -0.188414
v 0.006622 0.684929 -0.353715
v 0.351337 0.698017 -0.171899
v 0.363039 0.575006 0.245761
v 0.020035 0.501817 0.433250
v -0.249075 0.524231 0.184112
v -0.258100 0.619104 -0.138011
v 0.001296 0.702225 -0.265502
v 0.267160 0.712319 -0.125274
v 0.276185 0.617446 0.196849
v 0.011641 0.560998 0.341452
v -0.111284 0.440060 0.013003
v 0.111227 0.476104 -0.113939
v 0.111227 0.411585 0.144673
v -0.066546 0.152630 0.070812
v -0.066546 0.152630 -0.065264
v 0.063078 0.152630 -0.065264
v 0.050453 -0.038313 0.052739
v 0.063078 0.152630 0.070812
v -0.048268 -0.038313 -0.047190
v -0.039401 0.258605 -0.002194
v 0.032228 0.267062 -0.038115
v 0.026962 0.258363 0.044278
v 0.007095 0.108833 0.001265
v 0.016753 0.109973 -0.003578
v 0.016043 0.108801 0.007531
v 0.013833 0.083218 0.002205
vn -0.7358 -0.5282 0.4238
vn -0.7238 -0.2178 -0.6547
vn -0.7153 -0.2039 0.6684
vn 0.6913 -0.2744 -0.6685
vn 0.0433 -0.3141 -0.9484
vn 0.7093 -0.3965 -0.5828
vn 0.7222 -0.5387 0.4338
vn 0.6832 -0.2605 0.6822
vn -0.0067 -0.4831 0.8755
vn -0.6612 -0.3533 -0.6618
vn 0.6411 -0.7475 0.1738
vn 0.0310 -0.5782 -0.8153
vn -0.2505 -0.8415 -0.4787
vn 0.1298 -0.6492 -0.7494
vn -0.6626 -0.4015 -0.6322
vn -0.4182 -0.9082 0.0134
vn -0.4095 -0.7903 -0.4558
vn 0.0309 -0.8696 0.4928
vn 0.6302 -0.5826 -0.5133
vn -0.2273 -0.9738 0.0128
vn -0.6612 -0.3533 0.6618
vn -0.4077 -0.8175 -0.4068
vn -0.4077 -0.8175 0.4068
vn 0.2007 0.8879 0.4140
vn -0.1442 0.9750 0.1692
vn -0.1592 0.8231 0.5452
vn -0.5244 0.8507 0.0370
vn -0.2506 0.9441 0.2143
vn -0.2260 0.9435 0.2422
vn 0.6062 -0.6217 -0.4959
vn 0.1456 -0.9074 0.3941
vn 0.6232 -0.7758 0.0988
vn -0.1622 0.9584 0.2347
vn -0.4239 0.6098 0.6696
vn -0.4117 0.7993 -0.4377
vn -0.1592 0.9607 0.2272
vn -0.5135 0.7607 0.3970
vn -0.1664 0.9657 -0.1994
vn -0.1567 0.9590 0.2362
vn 0.1968 0.9789 0.0551
vn 0.5674 0.8082 0.1580
vn 0.6679 -0.3377 0.6632
vn 0.4190 -0.8122 0.4058
vn 0.4190 -0.8123 -0.4058
vn 0.6679 -0.3377 -0.6632
vn -0.4142 0.3829 0.8257
vn -0.3151 0.5050 -0.8035
vn 0.9353 0.3326 0.1205
vn 0.8619 0.2349 -0.4493
vn -0.5601 0.2301 0.7958
vn -0.9948 0.0860 -0.0545
vn -0.5275 0.2341 0.8166
vn -0.0219 0.9997 -0.0145
vn 0.1187 0.2161 -0.9691
vn 0.4284 0.1536 0.8904
vt 0.015369 0.984204
vt 0.178662 0.763702
vt 0.178662 0.823595
vt 0.178662 0.882200
vt 0.178662 0.943057
vt 0.178662 0.909150
vt 0.178662 0.994375
vt 0.178662 0.994769
vt 0.178662 0.994758
s 1
f 2/1/1 35/1/2 34/1/3
f 36/1/4 14/1/5 8/1/6
f 36/1/4 6/1/7 38/1/8
f 16/1/9 34/1/3 38/1/8
f 36/1/4 39/1/10 35/1/2
f 8/1/6 12/1/11 6/1/7
f 17/1/12 20/1/13 21/1/14
f 4/1/15 9/1/16 10/1/17
f 6/1/7 18/1/18 16/1/9
f 4/1/15 17/1/12 14/1/5
f 8/1/6 17/1/12 11/1/19
f 2/1/1 18/1/18 9/1/16
f 18/1/18 19/1/20 9/1/16
f 15/1/21 3/1/22 1/1/23
f 38/1/8 6/1/7 16/1/9
f 35/1/2 14/1/5 36/1/4
f 23/2/24 30/3/25 24/2/26
f 20/2/27 25/3/28 26/3/29
f 11/1/19 21/1/14 22/1/30
f 12/1/11 24/1/31 18/1/18
f 11/1/19 23/1/32 12/1/11
f 10/1/17 19/1/20 20/1/13
f 29/3/33 32/4/34 33/4/35
f 26/3/29 32/4/34 27/3/36
f 19/2/37 30/3/25 25/3/28
f 21/2/38 28/3/39 22/2/40
f 21/2/38 26/3/29 27/3/36
f 22/2/40 29/3/33 23/2/24
f 26/3/29 25/3/28 31/4/41
f 30/3/25 29/3/33 33/4/35
f 30/3/25 31/4/41 25/3/28
f 28/3/39 27/3/36 32/4/34
f 37/1/42 1/1/23 5/1/43
f 7/1/44 1/1/23 3/1/22
f 7/1/44 37/1/42 5/1/43
f 36/1/4 37/1/42 13/1/45
f 38/1/8 15/1/21 37/1/42
f 15/1/21 35/1/2 39/1/10
f 13/1/45 3/1/22 39/1/10
f 31/4/41 41/5/46 32/4/34
f 33/4/35 41/5/46 42/5/47
f 31/4/41 42/5/47 40/5/48
f 42/6/47 43/6/49 40/6/48
f 42/5/47 44/7/50 45/8/51
f 40/5/48 44/7/50 41/5/46
f 44/1/52 43/1/49 46/1/53
f 45/1/54 44/1/52 46/1/53
f 43/1/49 45/1/54 46/1/53
f 2/1/1 4/1/15 35/1/2
f 36/1/4 8/1/6 6/1/7
f 16/1/9 2/1/1 34/1/3
f 36/1/4 13/1/45 39/1/10
f 8/1/6 11/1/19 12/1/11
f 17/1/12 10/1/17 20/1/13
f 4/1/15 2/1/1 9/1/16
f 6/1/7 12/1/11 18/1/18
f 4/1/15 10/1/17 17/1/12
f 8/1/6 14/1/5 17/1/12
f 2/1/1 16/1/9 18/1/18
f 18/1/18 24/1/31 19/1/20
f 15/1/21 39/1/10 3/1/22
f 35/1/2 4/1/15 14/1/5
f 23/2/24 29/3/33 30/3/25
f 20/2/27 19/2/37 25/3/28
f 11/1/19 17/1/12 21/1/14
f 12/1/11 23/1/32 24/1/31
f 11/1/19 22/1/30 23/1/32
f 10/1/17 9/1/16 19/1/20
f 29/3/33 28/3/39 32/4/34
f 26/3/29 31/4/41 32/4/34
f 19/2/37 24/2/26 30/3/25
f 21/2/38 27/3/36 28/3/39
f 21/2/38 20/2/27 26/3/29
f 22/2/40 28/3/39 29/3/33
f 30/3/25 33/4/35 31/4/41
f 37/1/42 15/1/21 1/1/23
f 7/1/44 5/1/43 1/1/23
f 7/1/44 13/1/45 37/1/42
f 36/1/4 38/1/8 37/1/42
f 38/1/8 34/1/3 15/1/21
f 15/1/21 34/1/3 35/1/2
f 13/1/45 7/1/44 3/1/22
f 31/4/41 40/5/48 41/5/46
f 33/4/35 32/4/34 41/5/46
f 31/4/41 33/4/35 42/5/47
f 42/6/47 45/6/54 43/6/49
f 42/5/47 41/5/46 44/7/50
f 40/5/48 43/9/55 44/7/50
