# Blender 5.0.1
# www.blender.org
o Chanterelle_0
v -0.041765 -0.033929 0.042917
v -0.043208 0.194456 0.100063
v -0.041765 -0.033929 -0.041518
v -0.043208 0.168381 -0.046527
v 0.041765 -0.033929 0.042917
v 0.043208 0.194456 0.100063
v 0.025983 -0.057936 0.026964
v 0.043208 0.168381 -0.046527
v -0.025983 -0.057936 0.026964
v -0.085944 0.181418 0.026768
v 0.041765 -0.033929 -0.041518
v 0.085944 0.181418 0.026768
v -0.144715 0.391459 0.008466
v -0.072756 0.408951 -0.115662
v 0.072756 0.408951 -0.115662
v 0.144715 0.391459 0.008466
v 0.072756 0.373966 0.132595
v -0.072756 0.373966 0.132595
v -0.205497 0.490631 0.022442
v -0.103314 0.492990 -0.159703
v 0.103314 0.492990 -0.159703
v 0.205497 0.490631 0.022442
v 0.103314 0.465058 0.196445
v -0.103314 0.465058 0.196445
v -0.318783 0.503528 0.024613
v -0.150645 0.550630 -0.248518
v 0.150525 0.550630 -0.248518
v 0.307834 0.543840 0.031531
v 0.150525 0.511651 0.292937
v -0.150645 0.511651 0.292937
v -0.173025 0.509708 0.025130
v -0.086989 0.515202 -0.133839
v 0.086989 0.515202 -0.133839
v 0.173025 0.509708 0.025130
v 0.086989 0.490271 0.173496
v -0.086989 0.490271 0.173496
v -0.113617 0.534038 0.225568
v -0.249786 0.531076 0.027527
v 0.223825 0.557970 0.032673
v 0.105854 0.534038 0.225568
v -0.113617 0.563631 -0.180020
v 0.105854 0.563631 -0.180020
v 0.147746 0.503169 -0.229250
v 0.292838 0.496387 0.028960
v 0.147746 0.466490 0.269899
v -0.130756 0.466490 0.269899
v -0.130756 0.503169 -0.229250
v -0.285370 0.466494 0.023697
v 0.193673 0.438957 -0.310725
v 0.190772 0.485922 -0.311224
v -0.370185 0.429568 0.014839
v -0.191319 0.485922 -0.311224
v 0.381741 0.478487 0.022082
v 0.190772 0.438668 0.346943
v -0.191319 0.438668 0.346943
v 0.193673 0.390945 0.342033
v -0.195790 0.438957 -0.310725
v 0.383054 0.431195 0.015870
v -0.195790 0.390945 0.342033
v -0.358045 0.394607 0.011169
v 0.025983 -0.057936 -0.025565
v -0.025983 -0.057936 -0.025565
v -0.083333 0.475501 0.022066
v -0.041896 0.477624 -0.054498
v 0.041896 0.477624 -0.054498
v 0.083333 0.475501 0.022066
v 0.041896 0.467988 0.093522
v -0.041896 0.467988 0.093522
v 0.000000 0.420107 0.012338
vn -0.6289 -0.3778 -0.6795
vn -0.9772 -0.2055 0.0526
vn -0.4999 -0.1707 -0.8491
vn 0.6289 -0.3778 -0.6795
vn 0.9772 -0.2055 0.0526
vn 0.6365 -0.4552 0.6227
vn 0.4509 -0.2280 0.8630
vn -0.6365 -0.4552 0.6227
vn -0.3799 -0.8444 0.3776
vn -0.4809 -0.4480 0.7537
vn -0.9048 -0.4208 -0.0660
vn 0.4999 -0.1707 -0.8491
vn 0.9048 -0.4208 -0.0660
vn 0.3799 -0.8444 -0.3776
vn -0.3799 -0.8444 -0.3776
vn 0.2108 -0.9450 0.2499
vn 0.4809 -0.4480 0.7537
vn -0.1651 -0.9514 0.2598
vn -0.1594 -0.9849 -0.0673
vn -0.4126 -0.4410 -0.7970
vn -0.4509 -0.2280 0.8630
vn 0.4126 -0.4410 -0.7970
vn -0.2723 0.8097 0.5199
vn 0.4533 0.2878 0.8436
vn 0.2394 0.8061 0.5412
vn 0.5392 -0.8389 -0.0744
vn 0.3383 -0.8417 0.4207
vn 0.1761 -0.9512 0.2534
vn -0.1539 -0.9107 -0.3834
vn 0.2051 -0.9056 -0.3713
vn 0.3895 -0.9183 -0.0706
vn -0.1488 0.9864 0.0700
vn -0.3049 0.8668 -0.3946
vn -0.0762 0.9969 -0.0167
vn 0.0183 0.9997 -0.0153
vn 0.3418 0.9376 0.0647
vn -0.1673 0.9832 0.0725
vn -0.2909 -0.8243 0.4857
vn -0.1793 -0.9400 0.2902
vn 0.4972 0.8640 0.0795
vn 0.9220 0.3854 0.0374
vn 0.2479 0.8716 -0.4229
vn 0.4567 0.3836 -0.8026
vn 0.3365 -0.7700 -0.5421
vn 0.7062 -0.7068 -0.0409
vn 0.2850 0.8186 0.4987
vn -0.2237 0.8903 0.3966
vn -0.3129 0.8041 0.5055
vn 0.2004 0.9468 -0.2518
vn 0.2857 0.8775 -0.3851
vn 0.0086 0.9896 0.1434
vn -0.5808 0.8113 0.0672
vn -0.0639 0.9879 0.1414
vn -0.2780 0.8717 -0.4035
vn -0.6754 0.7347 0.0633
vn -0.4263 0.9027 0.0588
vn 0.2237 0.8903 0.3966
vn -0.2004 0.9468 -0.2518
vn 0.4263 0.9027 0.0588
vn -0.3684 -0.9253 -0.0902
vn -0.1719 -0.8925 -0.4169
vn 0.1700 -0.9082 -0.3825
vn 0.5090 -0.0594 0.8587
vn -0.4689 0.3028 0.8297
vn -0.5493 -0.0481 0.8342
vn 0.9995 0.0279 -0.0156
vn 0.5185 0.0229 -0.8548
vn -0.4698 0.3970 -0.7885
vn -0.9937 0.1116 0.0062
vn -0.9452 -0.3244 -0.0367
vn -0.5560 0.0324 -0.8306
vn -0.5927 -0.8039 -0.0497
vn -0.2885 -0.7446 -0.6019
vn 0.3799 -0.8444 0.3776
vn 0.2942 0.8078 0.5108
vn 0.2743 0.8836 -0.3796
vn -0.5576 0.8276 0.0646
vt 0.561757 0.770242
vt 0.554808 0.857631
vt 0.566344 0.857631
vt 0.548468 0.770242
vt 0.543272 0.857631
vt 0.550979 0.760577
vt 0.538151 0.942190
vt 0.557688 0.942190
vt 0.559247 0.760577
vt 0.528102 0.977442
vt 0.555489 0.977442
vt 0.577225 0.942190
vt 0.654540 0.855051
vt 0.653309 0.794611
vt 0.568614 0.942445
vt 0.584157 0.977442
vt 0.688335 0.943980
vt 0.687802 0.855051
vt 0.689073 0.794611
vt 0.723435 0.855051
vt 0.725767 0.794611
vt 0.717777 0.888010
vt 0.661344 0.888010
vt 0.688183 0.888010
vt 0.688899 0.888010
vt 0.688682 0.855051
vt 0.555098 0.998119
vt 0.595195 0.998119
vt 0.554263 0.998119
vt 0.516070 0.998119
vt 0.658039 0.756824
vt 0.689822 0.756824
vt 0.721647 0.756824
vt 0.689870 0.794611
vt 0.690280 0.756824
s 1
f 3/1/1 10/2/2 4/3/3
f 4/3/3 11/1/4 3/1/1
f 12/2/5 5/4/6 11/1/4
f 6/5/7 1/4/8 5/4/6
f 3/1/1 9/6/9 1/4/8
f 10/2/2 18/7/10 13/8/11
f 8/3/12 16/8/13 12/2/5
f 61/9/14 9/6/9 62/9/15
f 11/1/4 8/3/12 12/2/5
f 1/4/8 10/2/2 3/1/1
f 16/8/13 23/10/16 17/7/17
f 13/8/11 24/10/18 19/11/19
f 4/3/3 13/8/11 14/12/20
f 6/5/7 18/7/10 2/5/21
f 4/3/3 15/12/22 8/3/12
f 12/2/5 17/7/17 6/5/7
f 30/13/23 54/14/24 29/13/25
f 48/15/26 57/15/27 47/15/28
f 13/8/11 20/16/29 14/12/20
f 16/8/13 21/16/30 22/11/31
f 17/7/17 24/10/18 18/7/10
f 14/12/20 21/16/30 15/12/22
f 39/17/32 35/17/33 40/17/34
f 37/17/35 31/17/36 38/17/37
f 47/15/28 49/15/38 43/15/39
f 28/18/40 54/14/24 53/19/41
f 27/20/42 53/19/41 50/21/43
f 48/15/26 59/15/44 60/15/45
f 32/17/46 65/17/47 33/17/48
f 35/17/33 68/17/49 36/17/50
f 41/17/51 31/17/36 32/17/46
f 39/17/32 33/17/48 34/17/52
f 40/17/34 36/17/50 37/17/35
f 42/17/53 32/17/46 33/17/48
f 26/20/54 42/22/53 27/20/42
f 30/13/23 40/23/34 37/23/35
f 27/20/42 39/24/32 28/18/40
f 26/20/54 38/25/37 41/22/51
f 30/13/23 38/25/37 25/26/55
f 29/13/25 39/24/32 40/23/34
f 34/17/52 65/17/47 66/17/56
f 31/17/36 64/17/57 32/17/46
f 35/17/33 66/17/56 67/17/58
f 36/17/50 63/17/59 31/17/36
f 20/16/29 48/27/26 47/28/28
f 23/10/16 44/29/60 45/30/61
f 24/10/18 48/27/26 19/11/19
f 21/16/30 47/28/28 43/28/39
f 22/11/31 43/28/39 44/29/60
f 23/10/16 46/30/62 24/10/18
f 56/31/63 55/14/64 59/31/65
f 58/32/66 50/21/43 53/19/41
f 49/33/67 52/21/68 50/21/43
f 59/31/65 51/34/69 60/35/70
f 56/31/63 53/19/41 54/14/24
f 57/33/71 51/34/69 52/21/68
f 25/26/55 52/21/68 51/34/69
f 43/15/39 58/15/72 44/15/60
f 44/15/60 56/15/73 45/15/61
f 25/26/55 55/14/64 30/13/23
f 26/20/54 50/21/43 52/21/68
f 46/15/62 56/15/73 59/15/44
f 11/1/4 7/6/74 61/9/14
f 11/1/4 62/9/15 3/1/1
f 1/4/8 7/6/74 5/4/6
f 65/17/47 64/17/57 69/17/75
f 68/17/49 67/17/58 69/17/76
f 63/17/59 68/17/49 69/17/76
f 67/17/58 66/17/56 69/17/77
f 64/17/57 63/17/59 69/17/75
f 66/17/56 65/17/47 69/17/77
f 4/3/3 8/3/12 11/1/4
f 12/2/5 6/5/7 5/4/6
f 6/5/7 2/5/21 1/4/8
f 3/1/1 62/9/15 9/6/9
f 10/2/2 2/5/21 18/7/10
f 8/3/12 15/12/22 16/8/13
f 61/9/14 7/6/74 9/6/9
f 1/4/8 2/5/21 10/2/2
f 16/8/13 22/11/31 23/10/16
f 13/8/11 18/7/10 24/10/18
f 4/3/3 10/2/2 13/8/11
f 6/5/7 17/7/17 18/7/10
f 4/3/3 14/12/20 15/12/22
f 12/2/5 16/8/13 17/7/17
f 30/13/23 55/14/64 54/14/24
f 48/15/26 60/15/45 57/15/27
f 13/8/11 19/11/19 20/16/29
f 16/8/13 15/12/22 21/16/30
f 17/7/17 23/10/16 24/10/18
f 14/12/20 20/16/29 21/16/30
f 39/17/32 34/17/52 35/17/33
f 37/17/35 36/17/50 31/17/36
f 47/15/28 57/15/27 49/15/38
f 28/18/40 29/13/25 54/14/24
f 27/20/42 28/18/40 53/19/41
f 48/15/26 46/15/62 59/15/44
f 32/17/46 64/17/57 65/17/47
f 35/17/33 67/17/58 68/17/49
f 41/17/51 38/17/37 31/17/36
f 39/17/32 42/17/53 33/17/48
f 40/17/34 35/17/33 36/17/50
f 42/17/53 41/17/51 32/17/46
f 26/20/54 41/22/51 42/22/53
f 30/13/23 29/13/25 40/23/34
f 27/20/42 42/22/53 39/24/32
f 26/20/54 25/26/55 38/25/37
f 30/13/23 37/23/35 38/25/37
f 29/13/25 28/18/40 39/24/32
f 34/17/52 33/17/48 65/17/47
f 31/17/36 63/17/59 64/17/57
f 35/17/33 34/17/52 66/17/56
f 36/17/50 68/17/49 63/17/59
f 20/16/29 19/11/19 48/27/26
f 23/10/16 22/11/31 44/29/60
f 24/10/18 46/30/62 48/27/26
f 21/16/30 20/16/29 47/28/28
f 22/11/31 21/16/30 43/28/39
f 23/10/16 45/30/61 46/30/62
f 56/31/63 54/14/24 55/14/64
f 58/32/66 49/33/67 50/21/43
f 49/33/67 57/33/71 52/21/68
f 59/31/65 55/14/64 51/34/69
f 56/31/63 58/32/66 53/19/41
f 57/33/71 60/35/70 51/34/69
f 25/26/55 26/20/54 52/21/68
f 43/15/39 49/15/38 58/15/72
f 44/15/60 58/15/72 56/15/73
f 25/26/55 51/34/69 55/14/64
f 26/20/54 27/20/42 50/21/43
f 46/15/62 45/15/61 56/15/73
f 11/1/4 5/4/6 7/6/74
f 11/1/4 61/9/14 62/9/15
f 1/4/8 9/6/9 7/6/74
