# Blender 5.0.1
# www.blender.org
o Galerina_0
v 0.136548 0.288592 -0.117865
v 0.120950 0.224939 -0.143914
v -0.003201 0.065342 0.013174
v 0.046193 0.138336 -0.046209
v 0.081259 0.190187 -0.079192
v 0.181631 0.241872 -0.140680
v -0.026545 -0.022679 -0.022664
v 0.082589 0.241045 -0.037498
v 0.031847 0.165118 0.012131
v 0.133180 0.206670 -0.056957
v 0.081022 0.125838 -0.000466
v 0.057065 0.049165 -0.001861
v 0.020818 0.057161 -0.047512
v -0.203451 0.212500 0.086175
v 0.031754 -0.022679 -0.030257
v -0.209409 0.199604 0.021950
v 0.011601 -0.022679 0.030557
v 0.014552 0.069651 0.034487
v -0.057202 0.123044 0.006874
v -0.139405 0.139717 0.036515
v -0.167676 0.237388 0.039053
v -0.129720 0.154108 0.099965
v -0.022339 0.131383 0.062026
v -0.109487 0.188616 0.049769
v -0.035702 0.176575 0.018450
v 0.026761 0.072263 -0.028473
v -0.030174 0.072800 -0.013642
v -0.040617 0.314174 0.063143
v 0.022584 -0.022679 -0.016582
v -0.041330 0.360684 0.016634
v -0.030174 -0.022679 -0.013642
v -0.028810 -0.022679 0.021053
v -0.041330 0.152830 -0.056570
v -0.041330 0.269344 -0.052296
v 0.010778 0.341363 0.035954
v 0.026761 -0.022679 -0.028473
v -0.040617 0.242096 0.007569
v -0.040616 0.166300 0.007809
v 0.010778 0.258025 -0.027427
v 0.010778 0.158426 -0.029826
v -0.029524 -0.022679 -0.043327
v 0.014552 -0.022679 0.034487
v -0.019461 0.204669 0.207733
v 0.020818 -0.022679 -0.047512
v -0.020044 0.233703 0.148713
v 0.057065 -0.022679 -0.001861
v 0.011601 0.044097 0.030557
v 0.004558 0.152342 0.035079
v 0.022028 0.176993 0.107259
v 0.022551 0.248338 0.186572
v -0.003201 -0.022679 0.013174
v 0.037484 0.126163 0.146043
v 0.025763 0.094015 0.056874
v 0.076911 0.173560 0.128186
v 0.058782 0.135036 0.020175
v 0.031754 0.048020 -0.030257
v -0.026545 0.050351 -0.022664
v -0.022942 0.305022 -0.085936
v -0.019346 0.418174 -0.056709
v 0.109023 0.300280 0.014146
v 0.085094 0.414422 0.022498
v 0.054691 0.302522 0.170660
v 0.042094 0.416196 0.146366
v -0.110853 0.308648 0.167308
v -0.088921 0.421045 0.143714
v -0.158832 0.310193 0.008724
v -0.126893 0.422267 0.018206
v -0.020799 0.356375 -0.097919
v 0.122318 0.351233 0.010620
v 0.063394 0.353664 0.180360
v -0.116139 0.360308 0.176725
v -0.168173 0.361984 0.004740
v -0.020282 0.453846 0.054763
v -0.020282 0.453846 0.054763
v -0.020282 0.453846 0.054763
v -0.020282 0.453846 0.054763
v -0.020282 0.453846 0.054763
v 0.029970 0.199749 -0.189900
v 0.058795 0.303361 -0.211034
v 0.182288 0.177445 -0.210545
v 0.179343 0.285709 -0.227373
v 0.255396 0.222774 -0.081221
v 0.237203 0.321583 -0.125023
v 0.148262 0.273093 0.019351
v 0.152414 0.361407 -0.045428
v 0.008941 0.258863 -0.047817
v 0.042152 0.350145 -0.098586
v 0.026035 0.242049 -0.215255
v 0.191225 0.217860 -0.237645
v 0.270511 0.267019 -0.097392
v 0.154324 0.321590 0.011679
v 0.003229 0.306157 -0.061165
v 0.136804 0.355157 -0.153850
v 0.136804 0.355157 -0.153850
v 0.136804 0.355157 -0.153850
v 0.136804 0.355157 -0.153850
v 0.136804 0.355157 -0.153850
v -0.280678 0.149368 0.010483
v -0.280107 0.247651 0.038603
v -0.177890 0.196891 -0.079867
v -0.198758 0.285262 -0.032902
v -0.054926 0.210651 -0.004518
v -0.101442 0.296152 0.026731
v -0.081718 0.171633 0.132401
v -0.122646 0.265272 0.135091
v -0.221241 0.133758 0.141671
v -0.233067 0.235297 0.142428
v -0.301462 0.189882 0.017961
v -0.189988 0.241420 -0.080024
v -0.056634 0.256343 0.001693
v -0.085690 0.214028 0.150181
v -0.237003 0.172953 0.160236
v -0.194695 0.295205 0.068868
v -0.194695 0.295205 0.068868
v -0.194695 0.295205 0.068868
v -0.194695 0.295205 0.068868
v -0.194695 0.295205 0.068868
v -0.080522 0.164816 0.113096
v -0.057916 0.261341 0.138046
v 0.018970 0.190583 0.010996
v 0.020824 0.281733 0.057242
v 0.149782 0.180747 0.072464
v 0.124351 0.273949 0.105890
v 0.131137 0.148902 0.212554
v 0.109595 0.248746 0.216760
v -0.011199 0.139056 0.237666
v -0.003052 0.240954 0.236634
v -0.092150 0.208670 0.121517
v 0.015749 0.236614 0.010789
v 0.157615 0.225947 0.077452
v 0.137394 0.191411 0.229380
v -0.016969 0.180733 0.256613
v 0.037860 0.291581 0.157668
v 0.037860 0.291581 0.157668
v 0.037860 0.291581 0.157668
v 0.037860 0.291581 0.157668
v 0.037860 0.291581 0.157668
vn -0.4395 -0.6842 -0.5821
vn -0.3633 0.7901 0.4938
vn 0.0625 0.8900 0.4517
vn -0.4656 -0.3983 -0.7903
vn -0.5595 0.4938 0.6657
vn -0.3376 -0.1044 -0.9355
vn -0.7829 0.1282 0.6088
vn 0.8647 -0.3088 0.3962
vn 0.8641 -0.3649 0.3466
vn 0.8525 -0.2768 0.4435
vn 0.9287 -0.1392 0.3436
vn -0.6276 -0.5515 0.5495
vn 0.7856 -0.5582 0.2670
vn -0.3269 -0.1710 0.9294
vn -0.3898 -0.7335 -0.5569
vn -0.0442 -0.2891 0.9563
vn 0.4728 -0.1075 0.8746
vn -0.6369 -0.4103 -0.6527
vn 0.4325 0.0095 0.9016
vn 0.3779 0.9017 -0.2102
vn 0.6501 0.6848 -0.3292
vn 0.6717 0.2736 -0.6884
vn 0.3458 0.8721 -0.3462
vn 0.5682 -0.5574 -0.6053
vn -0.3804 -0.6131 -0.6924
vn 0.9935 0.0385 -0.1070
vn -0.3389 -0.5372 0.7724
vn 0.8449 -0.5339 -0.0328
vn -0.4883 0.5274 -0.6953
vn -0.5330 -0.2663 0.8031
vn -0.4715 -0.5385 0.6984
vn -0.5282 -0.0400 -0.8482
vn -0.4647 0.0177 0.8853
vn -0.7982 -0.5557 -0.2326
vn -0.8858 -0.1142 -0.4498
vn -0.2206 0.0318 -0.9748
vn 0.9885 0.0891 -0.1219
vn 0.9713 0.0681 -0.2278
vn -0.4166 -0.5919 -0.6900
vn -0.1219 -0.5547 -0.8231
vn -0.4607 0.3029 -0.8343
vn 0.2295 -0.5513 0.8022
vn 0.0641 -0.2686 0.9611
vn -0.7625 -0.5558 -0.3312
vn 0.1255 -0.5513 0.8248
vn -0.2234 -0.7041 0.6740
vn -0.6624 0.5394 -0.5199
vn -0.0430 -0.8368 0.5459
vn -0.0236 -0.7136 0.7002
vn -0.8678 0.2288 -0.4412
vn 0.6403 -0.5573 -0.5286
vn 0.6848 0.1204 -0.7187
vn 0.9659 0.2456 0.0818
vn 0.8689 0.4401 0.2266
vn 0.7874 0.3036 -0.5365
vn -0.5195 0.2184 -0.8261
vn -0.7004 0.6576 -0.2776
vn 0.0257 0.1559 -0.9874
vn 0.6694 0.7167 -0.1955
vn 0.9502 0.1227 -0.2863
vn 0.5696 0.1384 0.8102
vn 0.4107 0.7274 0.5498
vn -0.5901 0.1813 0.7867
vn -0.6062 0.7639 -0.2214
vn -0.0641 0.9977 0.0213
vn -0.0280 0.9984 -0.0484
vn -0.3777 0.7565 0.5339
vn -0.9262 0.1922 -0.3243
vn 0.0410 0.7393 -0.6721
vn -0.0370 -0.9993 0.0015
vn 0.0113 -0.2277 -0.9737
vn -0.9280 -0.1919 -0.3194
vn -0.5964 -0.2026 0.7767
vn 0.5479 -0.2450 0.7999
vn 0.9234 -0.2604 -0.2819
vn 0.0410 0.9980 -0.0471
vn 0.0036 0.9988 0.0483
vn 0.0775 0.9967 0.0242
vn -0.6965 -0.0528 -0.7156
vn 0.3541 0.4365 -0.8271
vn 0.4418 -0.2195 -0.8699
vn 0.7256 0.6668 -0.1700
vn 0.9881 0.1193 0.0966
vn 0.1875 0.4953 0.8482
vn -0.5265 0.8502 -0.0003
vn -0.0160 0.9998 -0.0093
vn -0.0457 0.9968 -0.0654
vn 0.1813 0.9225 0.3409
vn -0.8537 0.3890 0.3463
vn -0.4196 0.5499 -0.7221
vn -0.0849 -0.9243 0.3720
vn -0.7197 -0.4050 -0.5640
vn -0.8747 0.0309 0.4837
vn 0.1526 0.1358 0.9789
vn 0.9425 -0.2352 0.2374
vn 0.4034 -0.5695 -0.7162
vn 0.0024 0.9936 -0.1127
vn 0.0453 0.9989 -0.0137
vn 0.0838 0.9911 -0.1039
vn -0.9788 -0.0356 -0.2017
vn -0.2586 0.8333 -0.4885
vn -0.1552 0.3452 -0.9256
vn 0.8300 0.4555 -0.3219
vn 0.4111 0.9082 -0.0782
vn 0.6154 0.1429 0.7752
vn -0.4948 0.4894 0.7181
vn -0.0378 0.9924 0.1170
vn -0.0898 0.9944 0.0557
vn 0.2651 0.6958 0.6675
vn -0.5026 -0.1606 0.8495
vn -0.8185 0.5744 0.0035
vn 0.2417 -0.9446 -0.2219
vn -0.8735 -0.3957 -0.2837
vn -0.4036 -0.5191 0.7534
vn 0.6994 -0.2197 0.6801
vn 0.9112 0.0887 -0.4023
vn -0.0609 -0.0200 -0.9979
vn -0.0755 0.9971 -0.0109
vn 0.0163 0.9991 0.0389
vn -0.0107 0.9998 -0.0192
vn -0.9834 0.1543 -0.0958
vn -0.1450 0.8634 -0.4832
vn -0.1862 0.3608 -0.9139
vn 0.5675 0.8099 -0.1483
vn 0.8619 0.2820 -0.4214
vn 0.7125 0.0268 0.7011
vn -0.3093 0.5828 0.7515
vn 0.0083 0.9934 0.1148
vn -0.0564 0.9966 0.0603
vn -0.4279 -0.0521 0.9023
vn -0.6869 0.7231 0.0730
vn 0.0290 -0.9755 -0.2179
vn -0.9591 -0.2202 -0.1777
vn -0.4111 -0.4238 0.8071
vn 0.7141 -0.3460 0.6085
vn 0.8615 -0.0943 -0.4989
vn -0.1726 -0.0165 -0.9849
vn -0.0468 0.9989 -0.0070
vn 0.0446 0.9984 0.0334
vn 0.0262 0.9994 -0.0239
vn 0.4660 0.6364 0.6147
vt 0.310601 0.694444
vt 0.310601 0.695669
vt 0.310601 0.733900
vt 0.310601 0.660415
vt 0.310601 0.643038
vt 0.310601 0.624473
vt 0.310601 0.573876
vt 0.310601 0.671840
vt 0.310601 0.715934
vt 0.310601 0.615810
vt 0.310601 0.562662
vt 0.310601 0.512862
vt 0.313338 0.730404
vt 0.313338 0.645990
vt 0.313338 0.657482
vt 0.313338 0.639334
vt 0.313338 0.632675
vt 0.313338 0.590036
vt 0.313338 0.685040
vt 0.313338 0.734942
vt 0.313338 0.592122
vt 0.313338 0.675424
vt 0.313338 0.516302
vt 0.313338 0.711226
vt 0.312556 0.617893
vt 0.312556 0.513392
vt 0.312556 0.734600
vt 0.312556 0.666173
vt 0.312556 0.707763
vt 0.312556 0.614664
vt 0.312556 0.622437
vt 0.313338 0.592551
vt 0.310601 0.568205
vt 0.312556 0.723452
vt 0.312556 0.675364
vt 0.312556 0.681895
vt 0.311774 0.568583
vt 0.311774 0.514702
vt 0.311774 0.698146
vt 0.311774 0.675814
vt 0.311774 0.634801
vt 0.311774 0.608861
vt 0.311774 0.573629
vt 0.311774 0.571748
vt 0.311774 0.673044
vt 0.311774 0.733381
vt 0.311774 0.641960
vt 0.311774 0.721573
vt 0.311774 0.655924
vt 0.444709 0.589652
vt 0.444709 0.681623
vt 0.444709 0.734420
vt 0.444709 0.624330
vt 0.444709 0.513075
s 1
f 2/1/1 8/2/2 1/3/3
f 5/4/4 9/5/5 8/2/2
f 4/6/6 3/7/7 9/5/5
f 1/3/3 10/8/8 6/9/9
f 8/2/2 11/10/10 10/8/8
f 3/7/7 11/10/10 9/5/5
f 10/8/8 2/1/1 6/9/9
f 11/10/10 5/4/4 10/8/8
f 12/11/11 4/6/6 11/10/10
f 12/11/11 51/12/12 46/12/13
f 14/13/14 20/14/15 22/15/16
f 20/14/15 23/16/17 22/15/16
f 19/17/18 18/18/19 23/16/17
f 14/13/14 24/19/20 21/20/21
f 23/16/17 24/19/20 22/15/16
f 23/16/17 26/21/22 25/22/23
f 18/18/19 36/23/24 26/21/22
f 21/20/21 20/14/15 16/24/25
f 24/19/20 19/17/18 20/14/15
f 26/21/22 19/17/18 25/22/23
f 40/25/26 32/26/27 29/26/28
f 30/27/29 37/28/30 28/29/31
f 37/28/30 33/30/32 38/31/33
f 26/21/22 31/23/34 27/32/35
f 13/33/36 51/12/12 3/7/7
f 37/28/30 35/34/37 28/29/31
f 37/28/30 40/25/26 39/35/38
f 40/25/26 41/26/39 33/30/32
f 12/11/11 44/12/40 13/33/36
f 39/35/38 30/27/29 35/34/37
f 39/35/38 33/30/32 34/36/41
f 18/18/19 31/23/34 42/23/42
f 47/37/43 7/38/44 17/38/45
f 43/39/46 49/40/47 52/41/48
f 49/40/47 53/42/49 52/41/48
f 53/42/49 57/43/50 47/37/43
f 47/37/43 15/38/51 56/44/52
f 43/39/46 54/45/53 50/46/54
f 53/42/49 54/45/53 52/41/48
f 53/42/49 56/44/52 55/47/55
f 56/44/52 7/38/44 57/43/50
f 50/46/54 49/40/47 45/48/56
f 55/47/55 49/40/47 54/45/53
f 56/44/52 48/49/57 55/47/55
f 33/30/32 32/26/27 38/31/33
f 68/50/58 61/51/59 69/50/60
f 61/51/59 70/50/61 69/50/60
f 63/51/62 71/50/63 70/50/61
f 67/51/64 76/52/65 77/52/66
f 65/51/67 72/50/68 71/50/63
f 72/50/68 59/51/69 68/50/58
f 60/53/70 64/53/70 66/53/70
f 72/50/68 58/54/71 66/54/72
f 64/54/73 72/50/68 66/54/72
f 62/54/74 71/50/63 64/54/73
f 69/50/60 62/54/74 60/54/75
f 68/50/58 60/54/75 58/54/71
f 74/52/76 77/52/66 75/52/77
f 63/51/62 73/52/78 75/52/77
f 59/51/69 77/52/66 74/52/76
f 61/51/59 74/52/76 73/52/78
f 65/51/67 75/52/77 76/52/65
f 88/50/79 81/51/80 89/50/81
f 89/50/81 83/51/82 90/50/83
f 83/51/82 91/50/84 90/50/83
f 87/51/85 96/52/86 97/52/87
f 85/51/88 92/50/89 91/50/84
f 92/50/89 79/51/90 88/50/79
f 80/53/91 84/53/91 86/53/91
f 92/50/89 78/54/92 86/54/93
f 91/50/84 86/54/93 84/54/94
f 82/54/95 91/50/84 84/54/94
f 89/50/81 82/54/95 80/54/96
f 88/50/79 80/54/96 78/54/92
f 94/52/97 97/52/87 95/52/98
f 83/51/82 93/52/99 95/52/98
f 79/51/90 97/52/87 94/52/97
f 81/51/80 94/52/97 93/52/99
f 85/51/88 95/52/98 96/52/86
f 108/50/100 101/51/101 109/50/102
f 101/51/101 110/50/103 109/50/102
f 103/51/104 111/50/105 110/50/103
f 107/51/106 116/52/107 117/52/108
f 105/51/109 112/50/110 111/50/105
f 112/50/110 99/51/111 108/50/100
f 100/53/112 104/53/112 106/53/112
f 112/50/110 98/54/113 106/54/114
f 111/50/105 106/54/114 104/54/115
f 102/54/116 111/50/105 104/54/115
f 109/50/102 102/54/116 100/54/117
f 108/50/100 100/54/117 98/54/113
f 114/52/118 117/52/108 115/52/119
f 103/51/104 113/52/120 115/52/119
f 99/51/111 117/52/108 114/52/118
f 101/51/101 114/52/118 113/52/120
f 105/51/109 115/52/119 116/52/107
f 128/50/121 121/51/122 129/50/123
f 129/50/123 123/51/124 130/50/125
f 123/51/124 131/50/126 130/50/125
f 127/51/127 136/52/128 137/52/129
f 131/50/126 127/51/127 132/50/130
f 132/50/130 119/51/131 128/50/121
f 120/53/132 124/53/132 126/53/132
f 132/50/130 118/54/133 126/54/134
f 124/54/135 132/50/130 126/54/134
f 122/54/136 131/50/126 124/54/135
f 129/50/123 122/54/136 120/54/137
f 128/50/121 120/54/137 118/54/133
f 134/52/138 137/52/129 135/52/139
f 123/51/124 133/52/140 135/52/139
f 119/51/131 137/52/129 134/52/138
f 121/51/122 134/52/138 133/52/140
f 125/51/141 135/52/139 136/52/128
f 7/38/44 15/38/51 17/38/45
f 29/26/28 32/26/27 41/26/39
f 36/23/24 42/23/42 31/23/34
f 46/12/13 51/12/12 44/12/40
f 2/1/1 5/4/4 8/2/2
f 5/4/4 4/6/6 9/5/5
f 4/6/6 13/33/36 3/7/7
f 1/3/3 8/2/2 10/8/8
f 8/2/2 9/5/5 11/10/10
f 3/7/7 12/11/11 11/10/10
f 10/8/8 5/4/4 2/1/1
f 11/10/10 4/6/6 5/4/4
f 12/11/11 13/33/36 4/6/6
f 12/11/11 3/7/7 51/12/12
f 14/13/14 16/24/25 20/14/15
f 20/14/15 19/17/18 23/16/17
f 19/17/18 27/32/35 18/18/19
f 14/13/14 22/15/16 24/19/20
f 23/16/17 25/22/23 24/19/20
f 23/16/17 18/18/19 26/21/22
f 18/18/19 42/23/42 36/23/24
f 21/20/21 24/19/20 20/14/15
f 24/19/20 25/22/23 19/17/18
f 26/21/22 27/32/35 19/17/18
f 40/25/26 38/31/33 32/26/27
f 30/27/29 34/36/41 37/28/30
f 37/28/30 34/36/41 33/30/32
f 26/21/22 36/23/24 31/23/34
f 13/33/36 44/12/40 51/12/12
f 37/28/30 39/35/38 35/34/37
f 37/28/30 38/31/33 40/25/26
f 40/25/26 29/26/28 41/26/39
f 12/11/11 46/12/13 44/12/40
f 39/35/38 34/36/41 30/27/29
f 39/35/38 40/25/26 33/30/32
f 18/18/19 27/32/35 31/23/34
f 47/37/43 57/43/50 7/38/44
f 43/39/46 45/48/56 49/40/47
f 49/40/47 48/49/57 53/42/49
f 53/42/49 48/49/57 57/43/50
f 47/37/43 17/38/45 15/38/51
f 43/39/46 52/41/48 54/45/53
f 53/42/49 55/47/55 54/45/53
f 53/42/49 47/37/43 56/44/52
f 56/44/52 15/38/51 7/38/44
f 50/46/54 54/45/53 49/40/47
f 55/47/55 48/49/57 49/40/47
f 56/44/52 57/43/50 48/49/57
f 33/30/32 41/26/39 32/26/27
f 68/50/58 59/51/69 61/51/59
f 61/51/59 63/51/62 70/50/61
f 63/51/62 65/51/67 71/50/63
f 67/51/64 65/51/67 76/52/65
f 65/51/67 67/51/64 72/50/68
f 72/50/68 67/51/64 59/51/69
f 66/53/70 58/53/70 60/53/70
f 60/53/70 62/53/70 64/53/70
f 72/50/68 68/50/58 58/54/71
f 64/54/73 71/50/63 72/50/68
f 62/54/74 70/50/61 71/50/63
f 69/50/60 70/50/61 62/54/74
f 68/50/58 69/50/60 60/54/75
f 75/52/77 73/52/78 74/52/76
f 77/52/66 76/52/65 75/52/77
f 63/51/62 61/51/59 73/52/78
f 59/51/69 67/51/64 77/52/66
f 61/51/59 59/51/69 74/52/76
f 65/51/67 63/51/62 75/52/77
f 88/50/79 79/51/90 81/51/80
f 89/50/81 81/51/80 83/51/82
f 83/51/82 85/51/88 91/50/84
f 87/51/85 85/51/88 96/52/86
f 85/51/88 87/51/85 92/50/89
f 92/50/89 87/51/85 79/51/90
f 86/53/91 78/53/91 80/53/91
f 80/53/91 82/53/91 84/53/91
f 92/50/89 88/50/79 78/54/92
f 91/50/84 92/50/89 86/54/93
f 82/54/95 90/50/83 91/50/84
f 89/50/81 90/50/83 82/54/95
f 88/50/79 89/50/81 80/54/96
f 95/52/98 93/52/99 94/52/97
f 97/52/87 96/52/86 95/52/98
f 83/51/82 81/51/80 93/52/99
f 79/51/90 87/51/85 97/52/87
f 81/51/80 79/51/90 94/52/97
f 85/51/88 83/51/82 95/52/98
f 108/50/100 99/51/111 101/51/101
f 101/51/101 103/51/104 110/50/103
f 103/51/104 105/51/109 111/50/105
f 107/51/106 105/51/109 116/52/107
f 105/51/109 107/51/106 112/50/110
f 112/50/110 107/51/106 99/51/111
f 106/53/112 98/53/112 100/53/112
f 100/53/112 102/53/112 104/53/112
f 112/50/110 108/50/100 98/54/113
f 111/50/105 112/50/110 106/54/114
f 102/54/116 110/50/103 111/50/105
f 109/50/102 110/50/103 102/54/116
f 108/50/100 109/50/102 100/54/117
f 115/52/119 113/52/120 114/52/118
f 117/52/108 116/52/107 115/52/119
f 103/51/104 101/51/101 113/52/120
f 99/51/111 107/51/106 117/52/108
f 101/51/101 99/51/111 114/52/118
f 105/51/109 103/51/104 115/52/119
f 128/50/121 119/51/131 121/51/122
f 129/50/123 121/51/122 123/51/124
f 123/51/124 125/51/141 131/50/126
f 127/51/127 125/51/141 136/52/128
f 131/50/126 125/51/141 127/51/127
f 132/50/130 127/51/127 119/51/131
f 126/53/132 118/53/132 120/53/132
f 120/53/132 122/53/132 124/53/132
f 132/50/130 128/50/121 118/54/133
f 124/54/135 131/50/126 132/50/130
f 122/54/136 130/50/125 131/50/126
f 129/50/123 130/50/125 122/54/136
f 128/50/121 129/50/123 120/54/137
f 135/52/139 133/52/140 134/52/138
f 137/52/129 136/52/128 135/52/139
f 123/51/124 121/51/122 133/52/140
f 119/51/131 127/51/127 137/52/129
f 121/51/122 119/51/131 134/52/138
f 125/51/141 123/51/124 135/52/139
