# Blender 5.0.1
# www.blender.org
o Model_0
v 0.011621 -0.124558 -0.876265
v 0.135331 7.571633 -0.819162
v 0.451880 -0.124558 -0.758298
v 0.774173 -0.124558 -0.436006
v 0.692750 7.523447 -0.559498
v 0.892140 -0.124558 0.004254
v 0.951450 7.501083 0.000001
v 0.774173 -0.124558 0.444513
v 0.692751 7.523447 0.559500
v 0.451881 -0.124558 0.766806
v 0.011621 -0.124558 0.884773
v 0.135331 7.571633 0.819164
v -0.428638 -0.124558 0.766806
v -0.750931 -0.124558 0.444514
v -0.422089 7.619821 0.559500
v -0.868898 -0.124558 0.004254
v -0.680789 7.642183 0.000001
v -0.750931 -0.124558 -0.436005
v -0.428639 -0.124558 -0.758298
v 0.515949 11.551070 -0.342844
v 0.635353 11.701110 0.529266
v -0.434841 11.405280 0.696313
v -0.533467 11.337795 -0.315178
v -1.105556 16.778597 0.597209
v -1.011524 16.679831 1.080599
v -1.820795 16.409710 1.130983
v -1.755593 16.564419 0.467884
v -2.284530 20.068859 1.553410
v -0.309481 9.735384 -0.297842
v -0.494058 9.748398 0.148808
v -0.203195 9.664591 0.515978
v 0.321051 9.580696 0.041363
v -1.647837 14.400045 -1.306675
v -0.788535 14.535132 -1.441779
v -1.289206 14.496943 -1.804724
v -1.147166 14.438236 -0.943729
v -0.056027 12.438034 -1.616553
v 0.337215 12.485788 -1.133954
v 0.096904 12.537167 -0.538478
v -0.460414 12.541555 -0.566285
v -0.509049 12.437166 -1.574145
v -0.749360 12.488546 -0.978668
v 0.737414 12.507477 1.298367
v 0.224455 12.040123 1.975222
v 0.219677 12.339052 1.624406
v 0.802697 11.781103 2.137586
v 2.024218 13.312439 3.802610
v 1.555412 13.692545 3.515896
v 2.002033 13.961635 3.088669
v 2.470839 13.581528 3.375383
v 5.036675 13.535572 -0.507759
v 5.524974 13.581210 -0.659026
v 5.180577 13.610012 -0.020779
v 5.668874 13.655653 -0.172046
v 4.038378 11.516080 0.216270
v 3.754173 11.674989 -0.005659
v 3.545430 11.762195 0.984435
v 3.980900 11.532740 0.776209
v 0.648415 7.280498 -0.442495
v -0.492151 7.724930 0.256673
v -0.469406 7.187548 -0.041960
v -0.032903 6.877210 -0.430971
v -1.747729 8.767707 -1.835746
v -2.270730 8.504452 -1.897751
v -2.360878 8.166015 -2.348788
v -2.076236 8.092033 -2.641489
v -2.232490 10.074476 -3.835290
v -2.473870 10.136772 -3.590090
v -3.019879 9.721529 -4.080466
v -2.778500 9.659238 -4.325667
v -4.244825 12.247973 -3.179783
v 0.283287 4.648695 0.383195
v -0.575339 5.222779 -0.309411
v 0.625249 4.924225 0.078048
v 0.645514 5.279751 -0.330918
v -0.595604 4.867252 0.099555
v -0.222451 4.642482 0.372066
v 0.272360 5.504521 -0.603430
v -0.233378 5.498309 -0.614558
v 0.163226 6.551844 3.385912
v -0.490407 6.861248 3.177883
v 0.356833 6.988461 3.136993
v -0.189762 6.515063 3.393412
v 0.056188 7.334643 2.921464
v -0.296801 7.297864 2.928964
v 0.489438 9.030839 5.000320
v -0.164195 9.176264 4.657012
v 0.683045 9.260453 4.553248
v 0.136450 9.004135 5.026702
v 0.382400 9.432580 4.183560
v 0.029411 9.405877 4.209941
v -1.463088 8.693727 -2.128446
v -1.553235 8.355290 -2.579483
v 0.041506 8.098531 0.115689
v 1.315656 12.248455 1.460731
v 1.320434 11.949527 1.811547
v 0.032330 10.891266 0.037667
v 0.328933 10.651455 -0.119813
v 0.030188 9.664506 -0.325807
v 0.136474 9.593714 0.488013
v 3.318703 11.904444 0.202568
v 3.261226 11.921098 0.762506
v 0.632726 10.212394 0.646018
v 0.583108 10.546232 0.216697
v 0.362648 10.365752 -0.130658
v -1.421404 18.808872 -3.176564
v -3.995907 20.158783 0.929708
v 5.433063 15.864485 4.912254
v -0.094561 17.347759 6.970114
v 6.981361 15.168070 -1.533883
v -1.577993 11.631695 -6.448249
v -5.826595 14.242056 -2.725281
v 0.259463 11.030605 7.033538
v -0.422090 7.619821 -0.559497
v 0.593311 7.868461 -0.227223
v 0.275347 3.748068 0.554765
v -0.739068 4.093480 1.010467
v -0.060415 3.363647 0.098724
v -1.074830 3.709058 0.554425
v -0.178595 3.747648 -0.455413
v -1.193009 4.093059 0.000289
v 0.084129 4.369395 -0.341846
v -0.930285 4.714806 0.113855
v 0.364680 4.369654 0.282478
v -0.649734 4.715066 0.738180
v -1.076165 4.024912 0.554893
v -0.914108 4.210454 0.775003
v -1.133204 4.210250 0.287438
v -1.006400 4.510338 0.342251
v -0.870991 4.510464 0.643583
v -0.038932 4.595779 0.236444
v 0.029028 4.751984 -0.171250
v 0.175936 4.062021 0.433228
v 0.367179 4.395614 -0.560837
v 0.582046 3.861853 -0.364055
v 0.514091 3.705653 0.043642
v 2.076731 6.045189 -0.841397
v 1.928007 6.210617 -1.237407
v 2.152306 5.626703 -1.486004
v 1.966101 6.025871 -1.496074
v 2.262939 5.646023 -0.831328
v 2.301035 5.461281 -1.089994
v 3.628652 7.693852 -2.236769
v -2.321323 9.832961 -4.241942
v -2.931045 9.963046 -3.673813
v -4.106614 12.263372 -3.574358
v -4.657005 11.844780 -3.407641
v -4.473642 12.070379 -3.124511
v -4.289979 12.037777 -3.857489
v -4.518795 11.860187 -3.802218
v 0.188326 8.060729 3.515965
v 0.078728 7.400265 3.374021
v -0.000266 7.270286 3.810161
v -1.972197 8.877654 4.593219
v 0.172153 7.829715 3.287218
v 0.109335 7.930748 3.952106
v 0.015911 7.501297 4.038910
vn 0.0018 0.0142 -0.9999
vn -0.5020 0.0158 -0.8647
vn 0.0096 0.0412 -0.9991
vn 0.9997 0.0243 -0.0069
vn 0.8653 -0.0052 0.5012
vn 1.0000 -0.0078 0.0001
vn -0.8664 0.0225 0.4988
vn -0.9999 0.0149 -0.0031
vn -0.9997 0.0242 0.0001
vn 0.0252 0.0279 0.9993
vn 0.0018 0.0153 0.9999
vn 0.7007 0.0252 0.7131
vn -0.7091 0.0007 0.7051
vn -0.5019 0.0168 0.8648
vn -0.8665 0.0220 -0.4986
vn -0.7005 0.0283 -0.7131
vn -0.0000 -1.0000 -0.0000
vn 0.8654 -0.0057 -0.5010
vn 0.4942 0.0070 -0.8693
vn 0.7081 0.0346 -0.7053
vn -0.5644 -0.1020 0.8192
vn 0.7520 0.1914 0.6308
vn -0.7199 -0.1958 0.6658
vn 0.8248 0.1475 0.5459
vn 0.6287 0.2147 -0.7474
vn -0.7220 0.0365 -0.6909
vn 0.6377 0.3651 -0.6782
vn -0.2325 0.9520 0.1993
vn -0.6127 0.0570 -0.7882
vn 0.4942 0.0080 0.8693
vn -0.2224 0.3050 0.9260
vn 0.5906 0.2728 0.7595
vn 0.5758 0.3642 0.7320
vn -0.8995 0.3914 -0.1944
vn -0.6615 0.5880 -0.4655
vn -0.3732 0.8221 -0.4299
vn -0.6541 0.4769 -0.5871
vn 0.0353 -0.2491 -0.9678
vn -0.4923 0.6788 -0.5448
vn 0.5976 0.3028 0.7424
vn -0.3740 -0.4817 0.7925
vn 0.4963 0.2955 0.8163
vn 0.8258 -0.5555 0.0977
vn 0.4398 -0.6503 0.6194
vn 0.9108 -0.4127 0.0073
vn -0.1174 -0.8386 -0.5320
vn 0.6970 -0.3413 -0.6307
vn 0.7093 -0.2485 -0.6597
vn 0.5532 -0.6032 0.5746
vn -0.4022 -0.5526 0.7299
vn -0.3937 -0.6505 0.6496
vn -0.9721 -0.0959 0.2141
vn -0.0744 0.2252 0.9715
vn -0.4635 0.1559 0.8723
vn 0.8234 0.5413 -0.1700
vn -0.0870 0.3992 -0.9127
vn -0.4115 0.8451 0.3413
vn -0.0792 0.7477 -0.6593
vn -0.8587 0.3132 0.4056
vn 0.1320 0.7610 -0.6351
vn 1.0000 -0.0068 0.0027
vn 0.9652 0.1700 -0.1986
vn 0.9987 0.0293 -0.0414
vn 0.6421 -0.4907 0.5890
vn 0.0247 -0.6384 0.7693
vn -0.5470 -0.3564 0.7574
vn 0.8206 0.5095 -0.2588
vn 0.9832 0.1712 0.0631
vn -0.1908 -0.3029 -0.9337
vn -0.0437 0.9236 -0.3810
vn -0.9258 0.1869 0.3285
vn 0.0228 0.4560 0.8897
vn -0.9244 -0.3812 0.0110
vn 0.3336 -0.1392 0.9324
vn -0.8203 -0.0652 0.5682
vn -0.7086 -0.6398 0.2975
vn -0.0226 -0.8824 -0.4699
vn -0.9728 -0.2037 0.1098
vn -0.1293 -0.2451 0.9608
vn 0.6785 -0.5616 -0.4735
vn 0.7863 0.5155 0.3406
vn -0.2445 0.8635 -0.4410
vn -0.5463 0.5989 0.5855
vn -0.9498 -0.2446 -0.1948
vn 0.2965 -0.4885 0.8206
vn -0.3788 0.6711 0.6372
vn -0.8231 0.5575 -0.1083
vn 0.7840 0.1506 -0.6022
vn 0.9227 -0.3008 -0.2412
vn 0.8892 0.4564 -0.0306
vn 0.7152 0.6869 -0.1291
vn 0.8964 0.3450 0.2782
vn 0.2451 0.7923 -0.5588
vn 0.6325 0.6192 -0.4653
vn 0.3273 -0.6088 -0.7227
vn 0.5800 -0.7443 -0.3310
vn 0.5857 -0.5309 0.6124
vn -0.2396 0.6883 0.6847
vn 0.0246 0.1196 0.9925
vn -0.8261 0.2441 0.5078
vn -0.7855 -0.6167 0.0518
vn -0.7832 0.1497 0.6035
vn -0.4835 0.7340 0.4770
vn 0.1056 0.8019 0.5880
vn -0.0426 0.8644 0.5010
vn 0.7656 -0.1077 0.6343
vn -0.9030 0.2987 -0.3089
vn -0.5469 0.8353 0.0567
vn 0.3269 0.5554 -0.7646
vn 0.4110 0.6499 -0.6393
vn 0.3211 0.8484 -0.4208
vn 0.4223 -0.3655 -0.8295
vn 0.4231 -0.1183 -0.8984
vn 0.9800 0.1527 -0.1272
vn -0.9877 0.0720 0.1385
vn -0.5476 0.6265 -0.5546
vn -0.6129 -0.3668 -0.6999
vn -0.9542 0.0207 0.2984
vn -0.2533 -0.1850 -0.9495
vn -0.5154 -0.3342 -0.7891
vn -0.8074 -0.5459 0.2238
vn -0.1431 -0.2989 0.9435
vn 0.4670 -0.8608 -0.2025
vn 0.3004 -0.4200 -0.8564
vn 0.1220 -0.7451 0.6557
vn 0.3849 0.8574 0.3418
vn 0.7244 -0.6333 -0.2723
vn -0.6574 -0.0750 -0.7498
vn -0.5308 0.8061 0.2617
vn -0.2420 0.8565 -0.4558
vn -0.4390 -0.5208 -0.7322
vn -0.7815 -0.5611 -0.2728
vn -0.1949 0.0391 -0.9800
vn 0.5841 0.7236 -0.3677
vn 0.7096 0.6700 -0.2181
vn 0.8685 0.4633 -0.1760
vn -0.3974 -0.7701 0.4991
vn -0.9496 -0.2473 0.1927
vn -0.1982 0.6126 -0.7651
vn 0.3689 0.4693 -0.8023
vn 0.4673 -0.7261 0.5044
vn 0.9520 -0.2085 0.2242
vn -0.8434 -0.5175 -0.1445
vn -0.1306 -0.7524 -0.6457
vn 0.3916 0.6342 -0.6666
vn -0.0008 0.6057 0.7957
vn -0.1911 0.5018 -0.8436
vn 0.3741 -0.8197 0.4338
vn 0.6437 -0.1199 -0.7558
vn 0.6447 0.6386 -0.4201
vn 0.0671 0.9598 0.2725
vn -0.6763 0.3072 0.6695
vn 0.7059 0.1874 -0.6830
vn -0.5269 0.5923 -0.6095
vn -0.9334 0.0552 0.3546
vn -0.4739 0.8675 0.1510
vn -0.1522 0.0708 0.9858
vn 0.3063 -0.2947 0.9052
vn -0.2704 -0.9550 0.1219
vn 0.3063 -0.2948 0.9052
vn -0.4734 -0.2955 -0.8298
vn -0.0222 0.7724 -0.6348
vn -0.9732 0.1940 0.1235
vn -0.8563 0.4524 0.2491
vn -0.8374 0.5153 0.1822
vn 0.4597 0.7728 0.4375
vn -0.7873 0.2280 0.5729
vn -0.7550 0.4525 0.4746
vn -0.6925 0.5154 0.5048
vn -0.9121 -0.0045 0.4099
vn -0.9512 0.2279 0.2081
vn -0.7386 0.1942 0.6455
vn -0.9085 0.0892 0.4082
vn -0.6597 0.7515 -0.0073
vn -0.4923 -0.1381 -0.8594
vn -0.9043 0.3501 -0.2443
vn 0.1555 -0.5100 -0.8460
vn -0.5830 0.1814 -0.7920
vn 0.8408 -0.5414 0.0026
vn 0.5936 0.7013 -0.3947
vn -0.2352 0.5566 0.7968
vn 0.4382 -0.7587 -0.4820
vn 0.7230 -0.4547 0.5201
vn 0.1975 0.5638 0.8019
vn 0.8670 0.1160 0.4846
vn 0.4592 0.0996 0.8827
vn -0.8100 0.4763 0.3420
vn 0.4630 0.5437 0.7000
vn -0.3259 0.6938 -0.6422
vn -0.0496 -0.4339 0.8996
vn -0.6249 -0.7802 0.0277
vn -0.9748 0.1877 -0.1206
vn -0.7318 -0.2049 -0.6500
vn -0.9060 -0.4230 0.0166
vt 0.345426 -0.699472
vt 0.266648 -0.699472
vt 0.360801 0.174905
vt 0.156002 0.163901
vt 0.092121 -0.699472
vt 0.156002 -0.699472
vt 0.156002 0.185908
vt 0.360801 0.174905
vt 0.447740 0.167389
vt 0.273861 0.182420
vt 0.234780 -0.699472
vt 0.281544 -0.699472
vt 0.219884 -0.699472
vt 0.273861 0.182420
vt 0.810780 0.532423
vt 0.976835 0.698478
vt 0.689220 0.986093
vt 0.409307 -0.699472
vt 0.243266 0.167389
vt 0.135551 1.032917
vt 0.225942 1.596350
vt 0.138140 1.590914
vt 0.068738 0.167389
vt 0.156002 1.125503
vt 0.230052 1.106096
vt 0.230052 1.022463
vt 0.073360 1.032917
vt 0.243266 0.182420
vt 0.232346 1.556740
vt 0.233628 1.906408
vt 0.125976 1.559888
vt 0.226514 1.534704
vt 0.120144 1.537852
vt 0.175589 1.908159
vt 0.120273 1.022463
vt 0.213399 1.595574
vt 0.242499 1.106096
vt 0.068738 0.182420
vt 0.456071 -0.699472
vt 0.976835 0.820038
vt 0.916055 0.925313
vt 0.810780 0.986093
vt 0.583945 0.925313
vt 0.523165 0.820038
vt 0.523165 0.698478
vt 0.583945 0.593203
vt 0.689220 0.532423
vt 0.916055 0.593203
vt 0.125597 1.590137
vt 0.216511 1.950916
vt 0.211387 1.955007
vt 0.210782 0.491547
vt 0.274656 0.482440
vt 0.250894 0.870439
vt 0.248203 -0.031386
vt 0.278488 0.468401
vt 0.311277 -0.012861
vt 0.291825 1.050267
vt 0.298162 0.775176
vt 0.240917 0.778287
vt 0.313994 1.001436
vt 0.244279 0.668419
vt 0.301333 0.668875
vt 0.349193 0.840609
vt 0.156210 0.487230
vt 0.240202 0.485558
vt 0.214838 0.367569
vt 0.305839 0.641951
vt 0.282698 0.372918
vt 0.259351 0.360883
vt 0.230722 0.166121
vt 0.230722 0.360468
vt 0.196985 0.782191
vt 0.221362 0.477429
vt 0.175460 0.485974
vt 0.283187 1.159354
vt 0.198042 0.870370
vt 0.326214 1.158079
vt 0.268008 1.161647
vt 0.299661 1.662679
vt 0.191948 0.074216
vt 0.298484 0.232792
vt 0.250260 0.244157
vt 0.272652 0.874937
vt 0.203181 0.879032
vt 0.236948 0.477215
vt 0.201326 0.781796
vt 0.179821 0.486242
vt 0.284190 0.827894
vt 0.286287 1.179971
vt 0.377443 1.657870
vt 0.224981 1.162922
vt 0.374125 1.658388
vt 0.296049 1.662099
vt 0.330364 1.175691
vt 0.274616 1.161577
vt 0.333966 1.692469
vt 0.236698 1.115921
vt 0.281112 0.842437
vt 0.156394 0.568741
vt 0.316691 0.468317
vt 0.309018 0.107428
vt 0.254535 0.875156
vt 0.198233 0.878963
vt 0.185894 0.102637
vt 0.230539 1.165857
vt 0.233667 1.647285
vt 0.304201 0.263673
vt 0.255977 0.275038
vt 0.252802 0.457068
vt 0.237151 1.648096
vt 0.249931 0.455836
vt 0.223773 1.132619
vt 0.169140 1.125764
vt 0.213764 1.690040
vt 0.310618 1.169442
vt 0.244343 1.156095
vt 0.225628 1.478179
vt 0.233450 1.136055
vt 0.221248 1.477851
vt 0.225056 0.870481
vt 0.167229 0.871954
vt 0.174668 0.856731
vt 0.232496 0.855259
vt 0.227085 1.118525
vt 0.295053 0.484008
vt 0.240360 0.782712
vt 0.229734 0.489361
vt 0.281718 1.125379
vt 0.213850 1.690645
vt 0.211988 1.690353
vt 0.317421 1.362673
vt 0.342070 1.068967
vt 0.215625 1.690369
vt 0.335943 0.772474
vt 0.329015 0.771887
vt 0.303825 1.060245
vt 0.271770 0.774998
vt 0.230561 0.768579
vt 0.282810 0.461740
vt 0.217492 0.467093
vt 0.233989 0.777699
vt 0.211959 0.777225
vt 0.195853 0.482784
vt 0.354070 1.078945
vt 0.313911 1.367038
vt 0.285736 0.768142
vt 0.307157 1.262335
vt 0.239412 -0.185534
vt 0.280487 -0.187595
vt 0.258385 -0.019112
vt 0.195345 0.610403
vt 0.260166 0.350744
vt 0.272805 0.614658
vt 0.309248 0.496326
vt 0.328955 0.871130
vt 0.250302 0.135478
vt 0.282850 0.468669
vt 0.254142 0.764396
vt 0.239007 0.766950
vt 0.291823 0.749550
vt 0.303989 0.505433
vt 0.219997 0.507105
vt 0.324007 0.871060
vt 0.276671 1.081146
vt 0.281797 0.994424
vt 0.197816 0.319860
vt 0.212248 0.119801
vt 0.258498 0.100943
vt 0.210100 0.403772
vt 0.277960 0.409122
vt 0.241784 0.193895
vt 0.208531 0.385048
vt 0.196700 0.190049
vt 0.233052 0.862537
vt 0.254669 0.491536
vt 0.190795 0.500643
vt 0.242646 0.599319
vt 0.177163 0.595946
vt 0.295535 0.782276
vt 0.303698 1.260661
vt 0.321461 1.073782
vt 0.249833 1.466660
vt 0.176818 -0.242296
vt 0.314138 0.773630
vt 0.307157 1.262336
vt 0.234711 0.019178
vt 0.230220 0.195383
vt 0.259003 0.009793
vt 0.252374 0.001666
vt 0.214427 -0.240549
vt 0.258307 -0.235943
vt 0.335803 0.583801
vt 0.204811 -0.068155
vt 0.141813 -0.057319
vt 0.263867 1.117012
vt 0.308657 1.109648
vt 0.245524 1.466460
vt 0.248786 0.641496
vt 0.300605 0.986944
vt 0.131947 -0.059682
vt 0.195021 -0.041157
vt 0.272345 -0.020014
vt 0.282271 -0.064472
vt 0.217450 0.162006
vt 0.150951 0.496337
vt 0.170879 -0.052529
vt 0.348594 0.864368
vt 0.218984 0.083420
vt 0.260166 0.084648
vt 0.341065 1.078614
vt 0.344178 1.077511
vt 0.296164 0.749155
vt 0.341916 1.078305
vt 0.230722 0.394198
vt 0.259351 0.396094
vt 0.240107 0.564880
vt 0.338828 1.079475
vt 0.248486 0.385110
vt 0.267019 0.538196
vt 0.196975 0.381263
vt 0.238052 0.215278
vt 0.192968 0.211432
vt 0.213009 0.302401
vt 0.196405 0.197096
vt 0.219006 -0.002454
vt 0.246674 -0.159106
vt 0.180200 0.862468
vt 0.293732 1.361086
vt 0.271219 0.133304
vt 0.211617 0.303592
vt 0.217158 0.468206
vt 0.223288 0.417687
vt 0.257736 0.763101
vt 0.206660 0.246091
vt 0.146941 0.168209
vt 0.298330 0.624166
vt 0.275993 0.885697
vt 0.280512 0.866197
vt 0.255834 0.646013
vt 0.156085 0.502315
vt 0.261670 0.620948
vt 0.224012 0.650769
vt 0.248410 0.324849
vt 0.224928 0.557294
vt 0.255901 0.542660
vt 0.238818 0.006199
vt 0.330717 1.693107
vt 0.288561 1.361461
vt 0.252652 0.982572
vt 0.317282 0.128514
vt 0.355021 0.476209
vt 0.289813 0.811692
vt 0.459172 0.793964
vt 0.038565 0.579894
vt 0.142716 0.897648
vt 0.441890 0.616912
vt 0.159531 0.907726
vt 0.477285 0.803865
vt 0.505446 0.648625
vt 0.687280 0.840385
vt 0.603809 0.954537
vt 0.117012 0.615288
vt 0.416744 0.868962
vt 0.221163 0.933042
vt 0.095450 0.907804
vt 0.338206 0.617039
vt 0.413204 0.803943
vt 0.890751 0.693504
vt 0.842373 0.840859
vt 0.925144 0.955520
vt 0.765989 0.460544
vt 0.639805 0.692736
vt 0.997916 0.650216
vt 0.765557 0.601959
vt 0.185662 0.493938
vt 0.124136 0.720774
vt 0.312593 0.551208
vt 0.020452 0.720900
vt 0.327303 1.000468
vt 0.268410 0.979932
vt 0.289965 1.363088
vt 0.259351 0.166975
vt 0.238197 0.055358
vt 0.179154 0.813573
vt 0.218984 0.350146
vt 0.177752 0.172999
vt 0.286619 0.306652
vt 0.258631 0.164938
vt 0.236930 0.381325
vt 0.180476 0.866003
s 1
f 1/1/1 19/2/2 2/3/3
f 7/4/4 8/5/5 6/6/6
f 14/5/7 17/7/8 16/6/9
f 12/8/10 11/1/11 9/9/12
f 15/10/13 14/11/7 13/12/14
f 17/7/8 18/13/15 16/6/9
f 2/3/3 19/2/2 114/14/16
f 16/15/17 19/16/17 6/17/17
f 4/13/18 3/18/19 5/19/20
f 22/20/21 25/21/22 26/22/23
f 9/23/12 7/4/4 21/24/24
f 7/4/4 20/25/25 21/24/24
f 23/26/26 17/7/8 22/27/21
f 23/26/26 114/28/16 17/7/8
f 24/29/27 28/30/28 25/31/22
f 15/10/13 12/8/10 22/20/21
f 9/9/12 22/20/21 12/8/10
f 25/31/22 21/24/24 24/29/27
f 27/32/29 23/26/26 26/33/23
f 26/33/23 28/34/28 27/32/29
f 23/35/26 24/36/27 20/37/25
f 4/13/18 7/4/4 6/6/6
f 5/19/20 1/1/1 2/3/3
f 19/2/2 18/13/15 114/14/16
f 13/12/14 11/1/11 12/8/10
f 7/4/4 9/23/12 8/5/5
f 14/5/7 15/38/13 17/7/8
f 11/1/11 10/18/30 9/9/12
f 12/8/10 15/10/13 13/12/14
f 10/18/30 8/39/5 9/9/12
f 20/37/25 5/9/20 2/3/3
f 17/7/8 114/28/16 18/13/15
f 19/16/17 1/40/17 6/17/17
f 1/40/17 3/41/17 6/17/17
f 3/41/17 4/42/17 6/17/17
f 6/17/17 8/43/17 10/44/17
f 10/44/17 11/45/17 13/46/17
f 13/46/17 14/47/17 16/15/17
f 16/15/17 18/48/17 19/16/17
f 6/17/17 10/44/17 13/46/17
f 13/46/17 16/15/17 6/17/17
f 2/3/3 114/14/16 23/35/26
f 7/4/4 5/19/20 20/25/25
f 17/7/8 15/38/13 22/27/21
f 27/49/29 28/50/28 24/36/27
f 21/24/24 20/25/25 24/29/27
f 23/35/26 27/49/29 24/36/27
f 4/13/18 5/19/20 7/4/4
f 3/18/19 1/1/1 5/19/20
f 25/21/22 22/20/21 21/24/24
f 23/26/26 22/27/21 26/33/23
f 9/23/12 21/24/24 22/20/21
f 2/3/3 23/35/26 20/37/25
f 26/22/23 25/21/22 28/51/28
f 31/52/31 100/53/32 39/54/33
f 73/55/34 85/56/35 79/57/36
f 51/58/37 56/59/38 101/60/39
f 71/61/40 145/62/41 68/63/42
f 96/64/43 100/65/44 32/66/45
f 66/67/46 144/68/47 93/69/48
f 80/70/49 89/71/50 83/72/51
f 89/73/50 81/74/52 83/75/51
f 39/54/33 36/76/53 40/77/54
f 34/78/55 35/79/56 107/80/57
f 43/81/58 48/82/59 49/83/60
f 32/66/61 38/84/62 39/85/33
f 82/86/63 86/87/64 80/88/49
f 46/89/65 31/52/66 100/53/44
f 39/85/33 38/84/62 34/90/67
f 34/78/68 35/79/69 106/91/70
f 33/92/71 36/76/72 106/93/70
f 33/92/73 36/76/74 107/94/57
f 35/95/69 33/96/71 106/97/70
f 46/89/65 48/98/59 44/99/75
f 61/100/76 66/101/46 62/102/77
f 42/103/78 40/104/54 36/76/53
f 62/105/77 66/67/46 93/69/48
f 36/106/74 34/90/55 107/107/57
f 47/108/79 50/109/80 108/110/81
f 35/95/56 33/96/73 107/111/57
f 49/83/82 48/82/83 108/112/81
f 48/113/84 47/114/85 109/115/86
f 50/116/80 49/117/82 108/118/81
f 48/98/83 47/119/79 108/120/81
f 45/121/87 44/122/75 48/113/59
f 96/123/43 95/124/88 50/125/89
f 93/126/48 67/127/90 92/128/91
f 50/125/92 49/129/93 109/130/86
f 47/114/85 50/125/92 109/131/86
f 51/58/37 110/132/94 52/133/95
f 49/129/93 48/113/84 109/134/86
f 56/59/38 52/133/95 55/135/96
f 58/136/97 53/137/98 57/138/99
f 145/139/100 65/140/101 64/141/102
f 57/138/99 53/137/98 102/142/103
f 92/128/91 68/143/104 63/144/105
f 53/137/98 54/145/106 110/146/94
f 69/147/107 145/139/108 111/148/109
f 51/149/37 53/150/98 110/151/94
f 79/152/36 84/153/110 78/154/111
f 99/155/112 37/156/113 38/84/62
f 61/157/76 64/141/102 65/140/101
f 84/158/110 88/159/114 82/86/63
f 85/56/35 87/160/115 91/161/116
f 29/162/117 30/163/118 42/103/78
f 35/95/119 41/164/120 42/103/78
f 147/165/121 145/62/41 148/166/122
f 56/59/38 32/167/123 99/155/124
f 96/168/43 47/108/125 46/169/65
f 68/63/104 64/170/102 63/171/105
f 55/172/96 54/173/106 58/174/97
f 37/175/113 99/176/112 29/177/117
f 58/178/97 32/167/123 55/179/96
f 67/127/126 144/180/127 111/181/109
f 150/182/128 147/165/121 112/183/129
f 145/184/108 68/143/130 67/127/126
f 70/185/131 69/147/107 111/186/109
f 69/187/132 150/188/128 70/189/133
f 146/190/134 68/191/42 67/192/135
f 75/193/136 84/158/110 82/86/63
f 77/194/137 81/74/52 76/195/138
f 71/196/40 146/197/134 112/198/129
f 70/199/133 149/200/139 144/68/140
f 82/86/63 72/201/141 74/202/142
f 74/202/142 75/203/136 82/86/63
f 72/204/141 83/205/51 77/194/137
f 30/163/118 31/206/31 40/104/54
f 73/55/34 76/207/138 81/74/52
f 37/175/113 35/79/119 34/90/67
f 95/208/88 49/117/60 50/116/89
f 67/127/135 149/200/139 146/197/134
f 66/101/46 69/147/143 70/185/144
f 84/153/110 91/209/116 90/210/145
f 87/160/115 89/73/50 113/211/146
f 87/160/115 113/212/146 91/161/116
f 88/159/114 90/213/145 113/214/146
f 89/215/50 86/216/64 113/217/146
f 86/87/64 88/159/114 113/218/146
f 54/173/106 52/219/95 110/220/94
f 52/133/95 56/59/38 51/58/37
f 53/221/98 101/222/39 102/223/103
f 58/136/97 54/145/106 53/137/98
f 56/59/38 99/176/124 105/224/147
f 100/53/148 58/136/97 57/138/99
f 69/187/132 147/225/121 150/188/128
f 146/190/134 71/226/40 68/191/42
f 90/210/145 91/209/116 113/227/146
f 41/228/120 35/79/119 37/175/113
f 71/61/40 112/229/129 148/166/122
f 59/230/149 92/128/91 115/231/150
f 64/170/102 94/232/151 63/171/105
f 94/232/151 115/233/150 92/234/91
f 94/235/151 64/170/102 60/236/152
f 95/208/88 98/237/153 43/238/58
f 32/66/45 95/124/88 96/123/43
f 45/239/87 97/240/154 30/241/155
f 31/206/66 45/121/87 30/163/155
f 98/242/153 97/243/154 43/238/58
f 105/224/147 104/244/156 101/60/39
f 100/53/148 57/138/99 103/245/157
f 104/244/156 102/246/103 101/60/39
f 104/244/156 103/245/157 57/138/99
f 104/244/156 57/138/99 102/246/103
f 111/247/109 145/184/108 67/127/126
f 36/106/72 34/90/68 106/248/70
f 112/249/129 147/250/121 148/166/122
f 144/68/127 70/185/131 111/186/109
f 63/171/105 94/232/151 92/234/91
f 62/105/77 93/69/48 59/251/149
f 117/252/158 118/253/159 116/254/160
f 118/253/159 121/255/161 120/256/161
f 120/257/161 123/258/162 122/259/162
f 121/260/163 129/261/164 123/262/165
f 123/263/162 124/264/166 122/265/162
f 125/266/166 116/267/160 124/268/166
f 127/269/167 130/270/168 129/261/164
f 123/262/165 130/270/168 125/271/169
f 119/272/170 128/273/171 121/260/163
f 125/271/169 127/269/167 117/274/172
f 119/272/170 127/269/167 126/275/173
f 117/252/158 119/276/159 118/253/159
f 118/253/159 119/276/159 121/255/161
f 120/257/161 121/277/161 123/258/162
f 121/260/163 128/273/171 129/261/164
f 123/263/162 125/278/166 124/264/166
f 125/266/166 117/279/158 116/267/160
f 128/273/171 126/275/173 129/261/164
f 126/275/173 127/269/167 129/261/164
f 123/262/165 129/261/164 130/270/168
f 119/272/170 126/275/173 128/273/171
f 125/271/169 130/270/168 127/269/167
f 119/272/170 117/274/172 127/269/167
f 138/61/174 134/62/175 132/63/176
f 139/165/177 134/62/175 140/166/178
f 142/182/179 139/165/177 143/183/180
f 134/184/175 131/127/181 132/143/176
f 135/187/182 142/188/179 136/189/183
f 137/190/184 132/191/176 131/192/181
f 138/196/174 137/197/184 143/198/180
f 136/199/183 141/200/185 133/68/186
f 131/127/181 141/200/185 137/197/184
f 135/187/182 139/225/177 142/188/179
f 137/190/184 138/226/174 132/191/176
f 138/61/174 143/229/180 140/166/178
f 137/280/184 141/200/185 142/281/179
f 143/282/180 137/280/184 142/281/179
f 143/249/180 139/250/177 140/166/178
f 146/280/134 149/200/139 150/281/128
f 112/282/129 146/280/134 150/281/128
f 154/166/187 156/62/188 151/63/189
f 157/187/190 154/188/187 153/189/191
f 151/191/189 155/127/192 152/68/193
f 153/199/191 154/200/187 152/68/193
f 154/188/187 157/147/190 156/62/188
f 152/68/193 154/200/187 151/191/189
f 56/59/38 105/224/147 101/60/39
f 56/59/38 55/135/96 32/167/123
f 31/52/31 39/54/33 40/77/54
f 73/55/34 81/74/52 85/56/35
f 71/61/40 148/166/122 145/62/41
f 96/64/43 46/89/65 100/65/44
f 66/67/46 70/199/144 144/68/47
f 80/70/49 86/283/64 89/71/50
f 89/73/50 87/160/115 81/74/52
f 43/81/58 45/284/87 48/82/59
f 32/66/61 39/85/33 100/65/32
f 82/86/63 88/159/114 86/87/64
f 46/89/65 44/99/75 31/52/66
f 39/85/33 34/90/67 36/106/53
f 46/89/65 47/119/125 48/98/59
f 61/100/76 65/285/101 66/101/46
f 42/103/78 36/76/53 33/92/194
f 93/126/48 144/180/47 67/127/90
f 145/139/100 69/147/143 65/140/101
f 92/128/91 67/127/90 68/143/104
f 79/152/36 85/286/35 84/153/110
f 99/155/112 38/84/62 32/66/61
f 61/157/76 60/287/152 64/141/102
f 84/158/110 90/213/145 88/159/114
f 85/56/35 81/74/52 87/160/115
f 29/162/117 42/103/78 41/164/120
f 35/95/119 42/103/78 33/96/194
f 147/165/121 69/147/132 145/62/41
f 96/168/43 50/109/89 47/108/125
f 68/63/104 145/62/100 64/170/102
f 55/172/96 52/219/95 54/173/106
f 37/175/113 29/177/117 41/228/120
f 58/178/97 100/288/148 32/167/123
f 75/193/136 78/154/111 84/158/110
f 77/194/137 83/75/51 81/74/52
f 70/199/133 150/281/128 149/200/139
f 82/86/63 80/88/49 72/201/141
f 72/204/141 80/289/49 83/205/51
f 30/163/118 40/104/54 42/103/78
f 37/175/113 34/90/67 38/84/62
f 95/208/88 43/238/58 49/117/60
f 67/127/135 144/68/140 149/200/139
f 66/101/46 65/140/101 69/147/143
f 84/153/110 85/286/35 91/209/116
f 53/221/98 51/290/37 101/222/39
f 59/230/149 93/126/48 92/128/91
f 95/208/88 32/66/45 98/237/153
f 45/239/87 43/291/58 97/240/154
f 31/206/66 44/122/75 45/121/87
f 138/61/174 140/166/178 134/62/175
f 139/165/177 135/147/182 134/62/175
f 136/199/183 142/281/179 141/200/185
f 131/127/181 133/68/186 141/200/185
