# Blender 5.0.1
# www.blender.org
o Morel_0
v 0.055226 0.117408 -0.063172
v 0.091602 -0.058667 -0.081105
v 0.055226 0.117408 0.063172
v 0.091602 -0.058667 0.081105
v -0.068660 0.092615 -0.063172
v -0.070597 -0.060527 -0.081105
v -0.068660 0.092615 0.063172
v -0.070597 -0.060527 0.081105
v 0.061558 0.190873 0.056017
v -0.050230 0.198288 0.056017
v 0.061558 0.190873 -0.056017
v -0.050230 0.198288 -0.056017
v 0.113136 0.162339 0.110217
v -0.106814 0.176929 0.110217
v 0.113136 0.162339 -0.110217
v -0.106814 0.176929 -0.110217
v 0.096399 0.381704 0.114349
v -0.141769 0.381979 0.114349
v 0.096399 0.381704 -0.123820
v -0.141769 0.381979 -0.123820
v 0.101459 0.549698 0.095323
v -0.088035 0.542053 0.095323
v 0.101459 0.549698 -0.095323
v -0.088035 0.542053 -0.095323
v -0.005770 0.641547 0.000000
v -0.044726 -0.101819 -0.055708
v -0.044726 -0.101819 0.055708
v 0.066684 -0.100541 -0.055708
v 0.066684 -0.100541 0.055708
v 0.127995 0.168822 -0.137330
v -0.125987 0.182958 -0.141344
v -0.127173 0.416729 0.121010
v 0.113454 0.450746 -0.120952
v -0.128973 0.462149 -0.116993
v 0.109709 0.593821 -0.104713
v -0.006772 0.677971 0.000215
v 0.176615 0.156935 -0.009586
v 0.007009 0.593297 -0.145711
v -0.179141 0.441730 0.002905
v -0.136690 0.566113 0.001296
v -0.008478 0.402217 0.166718
v 0.011497 0.553059 0.145496
v 0.122535 0.144132 0.115851
v -0.131436 0.158354 0.111814
v 0.113612 0.406265 0.117783
v 0.109234 0.566465 0.103371
v -0.095492 0.552544 0.104662
v -0.098860 0.581241 -0.103253
v 0.159433 0.426825 -0.004438
v 0.153610 0.581851 -0.003027
v 0.002607 0.180841 -0.189996
v -0.010752 0.465636 -0.166671
v -0.179025 0.170245 -0.015886
v -0.005032 0.146327 0.164506
v -0.162634 0.282302 -0.163850
v 0.160933 0.269241 -0.162383
v 0.160740 0.301209 0.159953
v -0.002217 0.269423 -0.227673
v -0.162683 0.314241 0.158564
v 0.224238 0.284797 -0.001100
v -0.228798 0.298635 -0.002696
v -0.002340 0.314178 0.223735
v -0.124134 0.186952 -0.120432
v -0.125843 0.199846 0.111260
v 0.113463 0.413080 0.110326
v -0.109084 0.444108 -0.107295
v -0.103610 0.454509 0.113796
v -0.094243 0.574614 -0.104004
v 0.002359 0.651371 0.001435
v -0.007991 0.176109 -0.165761
v -0.126018 0.567236 -0.008796
v 0.008270 0.435885 0.143084
v 0.004343 0.549340 0.119926
v 0.154241 0.399843 0.001711
v 0.134731 0.537433 -0.016346
v 0.106838 0.164430 -0.117397
v 0.105107 0.177404 0.114285
v 0.108669 0.403535 -0.109274
v 0.095557 0.549662 -0.105169
v 0.098308 0.536963 0.081554
v -0.091308 0.563139 0.086224
v -0.003163 0.422289 -0.150128
v -0.001831 0.563696 -0.144827
v -0.171208 0.197915 -0.005659
v -0.149831 0.457690 0.006347
v -0.011004 0.188250 0.158672
v 0.152197 0.166433 -0.001415
v -0.146090 0.290462 0.144859
v -0.147239 0.278549 -0.150283
v 0.146771 0.307708 -0.152584
v -0.205537 0.278714 -0.000969
v 0.147989 0.319596 0.142426
v -0.000616 0.292739 -0.209264
v 0.001409 0.305360 0.203970
v 0.206200 0.319539 -0.004326
vn 0.6640 0.1127 -0.7392
vn -0.6862 0.1750 -0.7061
vn 0.7345 0.0028 -0.6786
vn 0.7029 -0.2013 0.6822
vn -0.7280 0.1255 0.6740
vn -0.6682 -0.2671 0.6944
vn -0.7280 0.1255 -0.6740
vn -0.6682 -0.2671 -0.6944
vn 0.7029 -0.2013 -0.6822
vn -0.3830 -0.8362 -0.3926
vn 0.1527 -0.9634 -0.2203
vn 0.1552 -0.9636 0.2177
vn 0.1527 -0.9634 0.2203
vn 0.6640 0.1127 0.7392
vn -0.6861 0.1750 0.7061
vn 0.7345 0.0028 0.6786
vn -0.6593 -0.1595 -0.7348
vn 0.6678 0.0554 -0.7423
vn 0.7509 0.0164 -0.6602
vn -0.2832 -0.9331 -0.2217
vn 0.1552 -0.9636 -0.2177
vn -0.2832 -0.9331 0.2217
vn -0.2858 -0.9329 0.2192
vn -0.2858 -0.9329 -0.2192
vn -0.7381 0.0818 0.6697
vn -0.5760 0.5246 -0.6269
vn -0.7280 0.0829 -0.6806
vn 0.6789 0.0512 0.7325
vn 0.7418 0.0440 0.6692
vn -0.6508 -0.1255 0.7488
vn -0.5747 0.5046 0.6443
vn 0.6574 0.4334 0.6165
vn -0.0805 0.9968 -0.0000
vn 0.6603 0.4484 -0.6024
vn 0.4021 -0.8272 -0.3926
vn -0.3830 -0.8362 0.3926
vn 0.4021 -0.8272 0.3926
vn -0.7035 -0.0392 -0.7096
vn -0.0280 0.2389 -0.9706
vn 0.0042 -0.0480 -0.9988
vn -0.9460 0.3182 0.0619
vn -0.5799 0.4754 0.6616
vn -0.8476 0.5267 0.0646
vn 0.7149 -0.0202 -0.6989
vn 0.9728 0.2312 0.0156
vn 0.9989 0.0445 0.0116
vn -0.9999 -0.0022 0.0144
vn -0.6392 0.3350 0.6923
vn -0.0053 0.1068 0.9943
vn 0.6713 0.3231 0.6671
vn -0.0154 0.3661 0.9304
vn 0.0174 0.4346 0.9005
vn -0.0855 0.9924 0.0890
vn -0.6331 0.5304 -0.5638
vn -0.0025 0.5323 -0.8466
vn 0.6945 0.2101 -0.6881
vn 0.8829 0.4674 0.0447
vn 0.6195 0.5192 -0.5887
vn 0.6140 0.4451 0.6518
vn 0.7084 0.0880 0.7003
vn -0.7030 0.2948 -0.6472
vn -0.6942 0.0746 0.7159
vn -0.6701 -0.3454 0.6570
vn -0.9256 -0.3768 -0.0350
vn -0.6234 -0.3946 -0.6750
vn 0.0275 -0.3858 -0.9222
vn 0.6486 -0.3776 -0.6608
vn 0.6459 -0.3558 0.6754
vn -0.0272 -0.3350 0.9418
vn 0.9322 -0.3619 0.0102
vn -0.7036 -0.0392 0.7095
vn -0.9661 0.2564 0.0284
vn -0.9988 -0.0480 0.0042
vn 0.0967 0.3254 0.9406
vn 0.6579 0.4633 0.5937
vn 0.0854 0.4848 0.8705
vn -0.7049 -0.0202 -0.7090
vn 0.0074 0.2312 -0.9729
vn 0.0032 0.0445 -0.9990
vn 0.0243 0.0198 0.9995
vn 0.6686 0.3550 0.6534
vn 0.9943 0.1068 -0.0031
vn 0.6614 0.3231 -0.6769
vn 0.9305 0.3661 0.0075
vn 0.9003 0.4346 -0.0249
vn 0.0761 0.9935 0.0844
vn -0.5701 0.5413 0.6180
vn -0.8541 0.5201 0.0080
vn -0.6963 0.2172 -0.6841
vn 0.0372 0.4674 -0.8833
vn -0.6155 0.5235 -0.5891
vn 0.6466 0.4451 -0.6194
vn 0.6943 0.0880 -0.7143
vn -0.6165 0.2958 0.7297
vn 0.7217 0.0746 0.6881
vn 0.6627 -0.3454 0.6645
vn -0.0272 -0.3768 0.9259
vn -0.6697 -0.3946 0.6291
vn -0.9224 -0.3858 -0.0197
vn -0.6663 -0.3776 -0.6430
vn 0.6699 -0.3558 -0.6516
vn 0.9420 -0.3350 0.0193
vn 0.0024 -0.3619 -0.9322
vt 0.106859 0.732807
vt 0.076397 0.732783
vt 0.117674 0.317008
vt 0.071922 0.355587
vt 0.075553 0.312924
vt 0.428492 0.348822
vt 0.476160 0.429752
vt 0.428492 0.432959
vt 0.374412 0.316270
vt 0.310472 0.354184
vt 0.313350 0.310286
vt 0.430516 0.307474
vt 0.476160 0.346289
vt 0.195747 0.313773
vt 0.250578 0.357014
vt 0.191261 0.355290
vt 0.131944 0.436649
vt 0.192024 0.440011
vt 0.185750 0.498594
vt 0.071922 0.440408
vt 0.370365 0.351355
vt 0.311235 0.439770
vt 0.011900 0.444168
vt 0.078138 0.498594
vt 0.252104 0.443374
vt 0.310931 0.498648
vt 0.370365 0.436166
vt 0.429799 0.490217
vt 0.252287 0.304303
vt 0.011900 0.357608
vt 0.011900 0.305122
vt 0.124562 0.353566
vt 0.116444 0.317008
vt 0.477391 0.429752
vt 0.123706 0.270662
vt 0.432539 0.266126
vt 0.378459 0.281185
vt 0.079184 0.270262
vt 0.011900 0.252636
vt 0.253996 0.251591
vt 0.200232 0.269739
vt 0.476160 0.251066
vt 0.316228 0.266388
vt 0.124936 0.270662
vt 0.135967 0.074949
vt 0.068960 0.109665
vt 0.072576 0.067178
vt 0.424064 0.102928
vt 0.466572 0.183525
vt 0.424064 0.186719
vt 0.370207 0.070510
vt 0.306529 0.108269
vt 0.309395 0.064551
vt 0.426079 0.061750
vt 0.466572 0.100406
vt 0.192275 0.066770
vt 0.246882 0.111087
vt 0.187809 0.109370
vt 0.128735 0.190394
vt 0.188568 0.193743
vt 0.182320 0.252084
vt 0.068960 0.194138
vt 0.366176 0.105451
vt 0.307289 0.193502
vt 0.009184 0.197882
vt 0.075151 0.252084
vt 0.248401 0.197092
vt 0.306986 0.252138
vt 0.366176 0.189913
vt 0.425366 0.243742
vt 0.248583 0.058592
vt 0.009184 0.111678
vt 0.009184 0.059408
vt 0.128735 0.107653
vt 0.143200 0.042244
vt 0.428094 0.020572
vt 0.374237 0.035569
vt 0.076192 0.024691
vt 0.009184 0.007138
vt 0.250285 0.006097
vt 0.196742 0.024171
vt 0.466572 0.005574
vt 0.312261 0.020833
vt 0.110412 0.353566
vt 0.476160 0.298678
vt 0.131944 0.353566
vt 0.466572 0.052990
s 1
f 1/1/1 12/1/2 11/1/3
f 4/1/4 7/1/5 8/1/6
f 8/1/6 5/1/7 6/1/8
f 2/1/9 26/1/10 6/1/8
f 1/1/1 4/1/4 2/1/9
f 5/1/7 2/1/9 6/1/8
f 10/2/11 16/2/12 12/2/13
f 3/1/14 10/1/15 7/1/5
f 7/1/5 12/1/2 5/1/7
f 1/1/1 9/1/16 3/1/14
f 16/2/17 19/2/18 15/2/19
f 10/2/11 13/2/20 14/2/21
f 12/2/13 15/2/22 11/2/23
f 9/2/24 15/2/22 13/2/20
f 18/2/25 24/2/26 20/2/27
f 15/2/19 17/2/28 13/2/29
f 16/2/17 18/2/25 20/2/27
f 14/2/30 17/2/28 18/2/25
f 22/2/31 21/2/32 25/2/33
f 17/2/28 22/2/31 18/2/25
f 19/2/18 24/2/26 23/2/34
f 17/2/28 23/2/34 21/2/32
f 23/2/34 24/2/26 25/2/33
f 21/2/32 23/2/34 25/2/33
f 24/2/26 22/2/31 25/2/33
f 28/1/35 27/1/36 26/1/10
f 8/1/6 29/1/37 4/1/4
f 6/1/8 27/1/36 8/1/6
f 4/1/4 28/1/35 2/1/9
f 55/3/38 52/4/39 58/5/40
f 39/6/41 47/7/42 40/8/43
f 56/9/44 49/10/45 60/11/46
f 61/12/47 32/13/48 39/6/41
f 62/14/49 45/15/50 41/16/51
f 47/17/42 42/18/52 36/19/53
f 45/15/50 42/18/52 41/16/51
f 52/4/39 48/17/54 38/20/55
f 33/21/56 50/22/57 49/10/45
f 35/23/58 38/20/55 36/24/53
f 46/25/59 50/22/57 36/26/53
f 48/27/54 40/8/43 36/28/53
f 60/11/46 45/15/50 57/29/60
f 33/30/56 38/20/55 35/23/58
f 58/5/40 33/30/56 56/31/44
f 61/12/47 34/21/61 55/9/38
f 34/21/61 40/8/43 48/27/54
f 41/16/51 47/17/42 32/32/48
f 59/33/62 41/16/51 32/32/48
f 36/19/53 42/18/52 46/25/59
f 36/24/53 38/20/55 48/17/54
f 36/26/53 50/22/57 35/27/58
f 36/28/53 40/8/43 47/34/42
f 49/10/45 46/25/59 45/15/50
f 44/35/63 62/14/49 59/33/62
f 53/36/64 55/9/38 31/37/65
f 51/38/66 56/31/44 30/39/67
f 43/40/68 60/11/46 57/29/60
f 54/41/69 57/29/60 62/14/49
f 44/42/63 61/12/47 53/36/64
f 37/43/70 56/9/44 60/11/46
f 31/44/65 58/5/40 51/38/66
f 88/45/71 85/46/72 91/47/73
f 72/48/74 80/49/75 73/50/76
f 89/51/77 82/52/78 93/53/79
f 94/54/80 65/55/81 72/48/74
f 95/56/82 78/57/83 74/58/84
f 80/59/75 75/60/85 69/61/86
f 78/57/83 75/60/85 74/58/84
f 85/46/72 81/59/87 71/62/88
f 66/63/89 83/64/90 82/52/78
f 68/65/91 71/62/88 69/66/86
f 79/67/92 83/64/90 69/68/86
f 81/69/87 73/50/76 69/70/86
f 93/53/79 78/57/83 90/71/93
f 66/72/89 71/62/88 68/65/91
f 91/47/73 66/72/89 89/73/77
f 94/54/80 67/63/94 88/51/71
f 67/63/94 73/50/76 81/69/87
f 74/58/84 80/59/75 65/74/81
f 92/45/95 74/58/84 65/74/81
f 69/61/86 75/60/85 79/67/92
f 69/66/86 71/62/88 81/59/87
f 69/68/86 83/64/90 68/69/91
f 69/70/86 73/50/76 80/49/75
f 82/52/78 79/67/92 78/57/83
f 77/75/96 95/56/82 92/45/95
f 86/76/97 88/51/71 64/77/98
f 84/78/99 89/73/77 63/79/100
f 76/80/101 93/53/79 90/71/93
f 87/81/102 90/71/93 95/56/82
f 77/82/96 94/54/80 86/76/97
f 70/83/103 89/51/77 93/53/79
f 64/75/98 91/47/73 84/78/99
f 1/1/1 5/1/7 12/1/2
f 4/1/4 3/1/14 7/1/5
f 8/1/6 7/1/5 5/1/7
f 2/1/9 28/1/35 26/1/10
f 1/1/1 3/1/14 4/1/4
f 5/1/7 1/1/1 2/1/9
f 10/2/11 14/2/21 16/2/12
f 3/1/14 9/1/16 10/1/15
f 7/1/5 10/1/15 12/1/2
f 1/1/1 11/1/3 9/1/16
f 16/2/17 20/2/27 19/2/18
f 10/2/11 9/2/24 13/2/20
f 12/2/13 16/2/12 15/2/22
f 9/2/24 11/2/23 15/2/22
f 18/2/25 22/2/31 24/2/26
f 15/2/19 19/2/18 17/2/28
f 16/2/17 14/2/30 18/2/25
f 14/2/30 13/2/29 17/2/28
f 17/2/28 21/2/32 22/2/31
f 19/2/18 20/2/27 24/2/26
f 17/2/28 19/2/18 23/2/34
f 28/1/35 29/1/37 27/1/36
f 8/1/6 27/1/36 29/1/37
f 6/1/8 26/1/10 27/1/36
f 4/1/4 29/1/37 28/1/35
f 55/3/38 34/84/61 52/4/39
f 39/6/41 32/13/48 47/7/42
f 56/9/44 33/21/56 49/10/45
f 61/12/47 59/85/62 32/13/48
f 62/14/49 57/29/60 45/15/50
f 45/15/50 46/25/59 42/18/52
f 52/4/39 34/86/61 48/17/54
f 33/21/56 35/27/58 50/22/57
f 60/11/46 49/10/45 45/15/50
f 33/30/56 52/4/39 38/20/55
f 58/5/40 52/4/39 33/30/56
f 61/12/47 39/6/41 34/21/61
f 34/21/61 39/6/41 40/8/43
f 41/16/51 42/18/52 47/17/42
f 59/33/62 62/14/49 41/16/51
f 49/10/45 50/22/57 46/25/59
f 44/35/63 54/41/69 62/14/49
f 53/36/64 61/12/47 55/9/38
f 51/38/66 58/5/40 56/31/44
f 43/40/68 37/43/70 60/11/46
f 54/41/69 43/40/68 57/29/60
f 44/42/63 59/85/62 61/12/47
f 37/43/70 30/37/67 56/9/44
f 31/44/65 55/3/38 58/5/40
f 88/45/71 67/74/94 85/46/72
f 72/48/74 65/55/81 80/49/75
f 89/51/77 66/63/89 82/52/78
f 94/54/80 92/87/95 65/55/81
f 95/56/82 90/71/93 78/57/83
f 78/57/83 79/67/92 75/60/85
f 85/46/72 67/74/94 81/59/87
f 66/63/89 68/69/91 83/64/90
f 93/53/79 82/52/78 78/57/83
f 66/72/89 85/46/72 71/62/88
f 91/47/73 85/46/72 66/72/89
f 94/54/80 72/48/74 67/63/94
f 67/63/94 72/48/74 73/50/76
f 74/58/84 75/60/85 80/59/75
f 92/45/95 95/56/82 74/58/84
f 82/52/78 83/64/90 79/67/92
f 77/75/96 87/81/102 95/56/82
f 86/76/97 94/54/80 88/51/71
f 84/78/99 91/47/73 89/73/77
f 76/80/101 70/83/103 93/53/79
f 87/81/102 76/80/101 90/71/93
f 77/82/96 92/87/95 94/54/80
f 70/83/103 63/77/100 89/51/77
f 64/75/98 88/45/71 91/47/73
