# Blender 5.0.1
# www.blender.org
o Pluteus_0
v -0.000000 -0.057349 -0.043433
v -0.000000 0.106073 -0.119223
v 0.049666 -0.057349 0.042591
v 0.049666 0.125763 -0.035483
v -0.049666 -0.057349 0.042591
v -0.049666 0.125763 -0.035483
v 0.049666 0.160714 -0.031503
v -0.000000 0.170931 -0.116918
v -0.049666 0.160714 -0.031503
v 0.049666 0.430997 0.063476
v -0.000000 0.444033 -0.021554
v -0.049666 0.430997 0.063476
v -0.053162 0.307604 0.073550
v -0.003496 0.319230 -0.011672
v 0.046170 0.307604 0.073550
v -0.001717 0.306318 -0.012470
v -0.054658 0.264674 0.060522
v 0.044572 0.264871 0.065018
v -0.006281 0.467935 -0.328072
v -0.006281 0.529017 -0.286875
v 0.272342 0.450469 -0.195036
v 0.246623 0.513164 -0.166119
v 0.341156 0.411225 0.103893
v 0.309085 0.477542 0.105217
v 0.148343 0.379753 0.343616
v 0.134070 0.448976 0.322811
v -0.160905 0.379753 0.343616
v -0.146632 0.448976 0.322811
v -0.353718 0.411225 0.103893
v -0.321647 0.477542 0.105217
v -0.284904 0.450469 -0.195036
v -0.259185 0.513164 -0.166119
v 0.181337 0.522317 -0.114546
v -0.010722 0.534356 -0.206250
v 0.228771 0.495265 0.091510
v 0.095863 0.473572 0.256755
v -0.117306 0.473572 0.256755
v -0.250215 0.495265 0.091510
v -0.202780 0.522317 -0.114546
vn -0.0000 -0.7057 -0.7085
vn 0.9248 0.0463 0.3775
vn 0.6894 -0.4563 0.5626
vn -0.6894 -0.4563 0.5626
vn -0.9248 0.0463 0.3776
vn 0.0016 0.3168 -0.9485
vn -0.0000 -0.2014 -0.9795
vn -0.0423 -0.0197 -0.9989
vn -0.9111 0.0597 0.4079
vn 0.0127 -0.0793 -0.9968
vn -0.9396 -0.1405 0.3121
vn 0.9403 -0.1204 0.3182
vn 0.8328 -0.0514 0.5512
vn -0.8293 -0.0307 0.5580
vn 0.9203 0.0068 0.3911
vn 0.0511 0.3868 -0.9207
vn 0.7790 -0.2869 0.5576
vn -0.8414 -0.2671 0.4699
vn 0.0010 0.8197 -0.5727
vn 0.6996 0.5153 -0.4950
vn -0.0000 0.5592 -0.8291
vn 0.6561 0.7140 0.2443
vn 0.8724 0.4168 0.2555
vn 0.2938 0.6523 0.6986
vn 0.3882 0.3378 0.8574
vn -0.3882 0.3378 0.8574
vn -0.2934 0.6494 0.7016
vn -0.8724 0.4168 0.2555
vn -0.6620 0.7082 0.2453
vn -0.0603 0.9671 0.2470
vn -0.1323 0.9783 0.1592
vn -0.6996 0.5153 -0.4950
vn -0.5290 0.7844 -0.3237
vn -0.0000 -0.9915 -0.1302
vn -0.0032 1.0000 0.0043
vn 0.0521 0.9683 0.2442
vn 0.0943 0.9941 0.0533
vn 0.5261 0.7882 -0.3193
vn 0.1185 0.9804 0.1577
vn -0.1054 0.9932 0.0496
vt 0.564061 0.012030
vt 0.564061 0.093361
vt 0.564061 0.113423
vt 0.564061 0.084615
vt 0.564061 0.179291
vt 0.564061 0.228934
vt 0.564061 0.234724
vt 0.564061 0.108885
vt 0.564061 0.174127
vt 0.564061 0.173556
vt 0.564061 0.155147
vt 0.564061 0.155060
vt 0.687972 0.185876
vt 0.687470 0.063492
s 1
f 1/1/1 4/2/2 3/1/3
f 4/2/2 5/1/4 3/1/3
f 6/2/5 8/3/6 2/4/7
f 6/2/5 1/1/1 5/1/4
f 1/1/1 3/1/3 5/1/4
f 14/5/8 12/6/9 11/7/10
f 4/2/2 9/8/11 6/2/5
f 4/2/2 8/3/6 7/8/12
f 15/9/13 12/6/9 13/9/14
f 14/5/8 10/6/15 15/9/13
f 16/10/16 15/9/13 18/11/17
f 18/11/17 13/9/14 17/12/18
f 16/10/16 13/9/14 14/5/8
f 9/8/11 16/10/16 8/3/6
f 9/8/11 18/11/17 17/12/18
f 7/8/12 16/10/16 18/11/17
f 20/13/19 21/13/20 19/13/21
f 21/13/20 24/13/22 23/13/23
f 23/13/23 26/13/24 25/13/25
f 26/13/24 27/13/26 25/13/25
f 28/13/27 29/13/28 27/13/26
f 30/13/29 37/13/30 38/13/31
f 30/13/29 31/13/32 29/13/28
f 32/13/33 19/13/21 31/13/32
f 21/14/34 25/14/34 29/14/34
f 34/13/35 38/13/31 36/13/36
f 20/13/19 33/13/37 22/13/38
f 26/13/24 35/13/39 36/13/36
f 30/13/29 39/13/40 32/13/33
f 28/13/27 36/13/36 37/13/30
f 32/13/33 34/13/35 20/13/19
f 24/13/22 33/13/37 35/13/39
f 1/1/1 2/4/7 4/2/2
f 4/2/2 6/2/5 5/1/4
f 6/2/5 9/8/11 8/3/6
f 6/2/5 2/4/7 1/1/1
f 14/5/8 13/9/14 12/6/9
f 4/2/2 7/8/12 9/8/11
f 4/2/2 2/4/7 8/3/6
f 15/9/13 10/6/15 12/6/9
f 14/5/8 11/7/10 10/6/15
f 16/10/16 14/5/8 15/9/13
f 18/11/17 15/9/13 13/9/14
f 16/10/16 17/12/18 13/9/14
f 9/8/11 17/12/18 16/10/16
f 9/8/11 7/8/12 18/11/17
f 7/8/12 8/3/6 16/10/16
f 20/13/19 22/13/38 21/13/20
f 21/13/20 22/13/38 24/13/22
f 23/13/23 24/13/22 26/13/24
f 26/13/24 28/13/27 27/13/26
f 28/13/27 30/13/29 29/13/28
f 30/13/29 28/13/27 37/13/30
f 30/13/29 32/13/33 31/13/32
f 32/13/33 20/13/19 19/13/21
f 31/14/34 19/14/34 21/14/34
f 21/14/34 23/14/34 25/14/34
f 25/14/34 27/14/34 29/14/34
f 29/14/34 31/14/34 21/14/34
f 35/13/39 33/13/37 34/13/35
f 34/13/35 39/13/40 38/13/31
f 38/13/31 37/13/30 36/13/36
f 36/13/36 35/13/39 34/13/35
f 20/13/19 34/13/35 33/13/37
f 26/13/24 24/13/22 35/13/39
f 30/13/29 38/13/31 39/13/40
f 28/13/27 26/13/24 36/13/36
f 32/13/33 39/13/40 34/13/35
f 24/13/22 22/13/38 33/13/37
