# Blender 5.0.1
# www.blender.org
o Salt_Mushroom_0
v -0.043301 -0.049069 -0.074846
v 0.000000 0.266405 -0.099846
v 0.074122 -0.049069 -0.042640
v 0.086603 0.266405 -0.049846
v 0.086603 0.266405 0.050154
v 0.043301 -0.049069 0.075154
v -0.000000 0.266405 0.100154
v -0.074122 -0.049069 0.042948
v -0.086603 0.266405 0.050154
v -0.086603 0.266405 -0.049846
v 0.000000 0.019463 -0.099846
v 0.086603 0.019463 -0.049846
v 0.086603 0.019463 0.050154
v -0.000000 0.019463 0.100154
v -0.086603 0.019463 0.050154
v -0.086603 0.019463 -0.049846
v 0.000000 0.074890 -0.160414
v 0.000000 0.230682 -0.150671
v 0.127135 0.227492 -0.077340
v 0.139334 0.079974 -0.080131
v 0.127135 0.221110 0.069325
v 0.139334 0.090141 0.080438
v -0.000000 0.217920 0.142657
v -0.000000 0.095224 0.160722
v -0.127135 0.221110 0.069325
v -0.139334 0.090141 0.080438
v -0.127135 0.227492 -0.077340
v -0.139334 0.079974 -0.080131
v 0.000000 0.326169 -0.265427
v -0.000000 0.326169 0.265736
v -0.230001 0.326169 0.132945
v 0.230001 0.326169 -0.132638
v 0.230000 0.326169 0.132945
v -0.230001 0.326169 -0.132638
v 0.275958 0.270223 -0.159172
v 0.000000 0.270223 -0.318495
v 0.275958 0.270223 0.159478
v -0.000000 0.270223 0.318803
v -0.275958 0.270223 0.159478
v -0.275958 0.270223 -0.159172
v 0.291387 0.399335 -0.168079
v 0.000000 0.399335 -0.336310
v 0.291387 0.399335 0.168386
v -0.000000 0.399335 0.336619
v -0.291387 0.399335 0.168386
v -0.291387 0.399335 -0.168079
v 0.246939 0.522971 -0.142417
v 0.000000 0.522971 -0.284986
v 0.246939 0.522971 0.142724
v -0.000000 0.522971 0.285295
v -0.246939 0.522971 0.142724
v -0.246939 0.522971 -0.142417
v 0.145452 0.589869 -0.083824
v 0.000000 0.589869 -0.167800
v 0.145452 0.589869 0.084130
v -0.000000 0.589869 0.168108
v -0.145452 0.589869 0.084130
v -0.145452 0.589869 -0.083824
v -0.000000 0.613040 0.000153
v 0.000000 0.321636 -0.121440
v -0.000000 0.321636 0.121749
v -0.105304 0.321636 0.060952
v -0.105304 0.321636 -0.060644
v 0.105304 0.321636 -0.060644
v 0.105304 0.321636 0.060952
vn -0.0000 0.8129 -0.5824
vn 0.7824 0.4270 -0.4533
vn -0.0000 0.4417 -0.8972
vn 0.5640 0.7750 -0.2852
vn 0.7963 0.3994 0.4544
vn 0.6062 0.6981 0.3811
vn -0.0000 0.3869 0.9221
vn -0.6062 0.6981 0.3811
vn -0.7963 0.3994 0.4544
vn -0.0272 -0.9995 -0.0157
vn -0.0000 -0.8752 0.4839
vn -0.0000 -0.9995 -0.0315
vn -0.5640 0.7750 -0.2852
vn -0.7824 0.4270 -0.4533
vn 0.6183 -0.7001 -0.3570
vn -0.6183 -0.7001 0.3570
vn -0.3585 -0.6970 -0.6210
vn -0.8597 -0.2744 -0.4309
vn 0.0567 -0.2744 -0.9600
vn -0.0567 -0.2744 0.9600
vn 0.3585 -0.6970 0.6210
vn 0.8597 -0.2744 0.4309
vn -0.6119 -0.7129 -0.3425
vn -0.0000 -0.3350 -0.9422
vn -0.0000 -0.7377 -0.6751
vn -0.8301 -0.3068 -0.4657
vn -0.6407 -0.6606 0.3913
vn -0.8315 -0.2532 0.4944
vn -0.0000 -0.6331 0.7741
vn -0.0000 -0.2273 0.9738
vn 0.8315 -0.2532 0.4944
vn 0.6407 -0.6606 0.3913
vn 0.8301 -0.3068 -0.4657
vn 0.6119 -0.7129 -0.3425
vn -0.0272 -0.9995 0.0157
vn -0.0000 -0.8752 -0.4838
vn 0.4190 -0.8751 -0.2419
vn 0.0272 -0.9995 -0.0157
vn -0.4190 -0.8751 -0.2419
vn 0.0272 -0.9995 0.0157
vn 0.4190 -0.8752 0.2419
vn -0.4190 -0.8752 0.2419
vn -0.0000 -0.9995 0.0315
vn 0.6283 -0.6882 -0.3628
vn 0.6283 -0.6882 0.3628
vn -0.8579 -0.1367 -0.4953
vn -0.0000 0.1184 -0.9930
vn -0.0000 -0.1367 -0.9906
vn -0.6283 -0.6882 -0.3628
vn -0.0000 -0.6882 -0.7255
vn -0.0000 -0.6882 0.7255
vn -0.6283 -0.6882 0.3628
vn -0.8599 0.1184 0.4965
vn -0.6837 0.6138 -0.3947
vn -0.8599 0.1184 -0.4965
vn -0.8579 -0.1367 0.4953
vn -0.0000 0.1184 0.9930
vn 0.8579 -0.1367 -0.4953
vn 0.8599 0.1184 0.4965
vn 0.8579 -0.1367 0.4953
vn -0.0000 -0.1367 0.9906
vn 0.8599 0.1184 -0.4965
vn -0.6837 0.6138 0.3947
vn -0.0000 0.9266 0.3760
vn -0.3256 0.9266 0.1880
vn -0.0000 0.6138 0.7895
vn 0.6837 0.6138 -0.3947
vn -0.0000 0.6138 -0.7895
vn 0.6837 0.6138 0.3947
vn 0.3256 0.9266 0.1880
vn -0.0000 1.0000 -0.0000
vn -0.3256 0.9266 -0.1880
vn 0.3256 0.9266 -0.1880
vn -0.0000 0.9266 -0.3760
vn -0.0000 -0.3641 0.9313
vn 0.8066 -0.3641 0.4657
vn 0.8066 -0.3641 -0.4657
vn -0.0000 -0.3641 -0.9313
vn -0.8066 -0.3641 0.4657
vn -0.8066 -0.3641 -0.4657
vn -0.0000 0.6592 0.7520
vn -0.8475 -0.2058 0.4893
vn 0.8475 -0.2058 -0.4893
vt 0.139784 0.700943
vt 0.175204 0.736364
vt 0.139784 0.736364
s 1
f 2/1/1 19/1/2 18/1/3
f 4/1/4 21/1/5 19/1/2
f 5/1/6 23/1/7 21/1/5
f 23/1/7 9/1/8 25/1/9
f 63/2/10 29/2/11 60/2/12
f 25/1/9 10/1/13 27/1/14
f 27/1/14 2/1/1 18/1/3
f 3/2/15 8/2/16 1/2/17
f 1/3/17 16/3/18 11/3/19
f 8/3/16 16/3/18 1/3/17
f 14/3/20 8/3/16 6/3/21
f 6/3/21 13/3/22 14/3/20
f 3/3/15 13/3/22 6/3/21
f 11/3/19 3/3/15 1/3/17
f 16/1/23 17/1/24 11/1/25
f 27/1/14 17/1/24 28/1/26
f 15/1/27 28/1/26 16/1/23
f 25/1/9 28/1/26 26/1/28
f 14/1/29 26/1/28 15/1/27
f 23/1/7 26/1/28 24/1/30
f 22/1/31 14/1/29 13/1/32
f 22/1/31 23/1/7 24/1/30
f 20/1/33 13/1/32 12/1/34
f 20/1/33 21/1/5 22/1/31
f 17/1/24 12/1/34 11/1/25
f 17/1/24 19/1/2 20/1/33
f 62/2/35 30/2/36 31/2/37
f 64/2/38 33/2/39 65/2/40
f 63/2/10 31/2/37 34/2/41
f 64/2/38 29/2/11 32/2/42
f 65/2/40 30/2/36 61/2/43
f 34/2/41 39/2/44 40/2/45
f 40/3/46 42/3/47 36/3/48
f 30/2/36 37/2/49 38/2/50
f 32/2/42 36/2/51 35/2/52
f 34/2/41 36/2/51 29/2/11
f 30/2/36 39/2/44 31/2/37
f 32/2/42 37/2/49 33/2/39
f 45/3/53 52/3/54 46/3/55
f 39/3/56 44/3/57 45/3/53
f 35/3/58 43/3/59 37/3/60
f 39/3/56 46/3/55 40/3/46
f 37/3/60 44/3/57 38/3/61
f 35/3/58 42/3/47 41/3/62
f 51/3/63 56/3/64 57/3/65
f 43/3/59 50/3/66 44/3/57
f 42/3/47 47/3/67 41/3/62
f 42/3/47 52/3/54 48/3/68
f 45/3/53 50/3/66 51/3/63
f 43/3/59 47/3/67 49/3/69
f 56/3/64 55/3/70 59/3/71
f 47/3/67 55/3/70 49/3/69
f 52/3/54 57/3/65 58/3/72
f 49/3/69 56/3/64 50/3/66
f 48/3/68 53/3/73 47/3/67
f 48/3/68 58/3/72 54/3/74
f 53/3/73 54/3/74 59/3/71
f 54/3/74 58/3/72 59/3/71
f 57/3/65 56/3/64 59/3/71
f 55/3/70 53/3/73 59/3/71
f 58/3/72 57/3/65 59/3/71
f 7/3/75 65/3/76 61/3/75
f 4/3/77 60/3/78 64/3/77
f 9/3/79 63/3/80 10/3/80
f 5/3/76 64/3/77 65/3/76
f 7/3/75 62/3/79 9/3/79
f 10/3/80 60/3/78 2/3/78
f 2/1/1 4/1/4 19/1/2
f 4/1/4 5/1/6 21/1/5
f 5/1/6 7/1/81 23/1/7
f 23/1/7 7/1/81 9/1/8
f 63/2/10 34/2/41 29/2/11
f 25/1/9 9/1/8 10/1/13
f 27/1/14 10/1/13 2/1/1
f 3/2/15 6/2/21 8/2/16
f 8/3/16 15/3/82 16/3/18
f 14/3/20 15/3/82 8/3/16
f 3/3/15 12/3/83 13/3/22
f 11/3/19 12/3/83 3/3/15
f 16/1/23 28/1/26 17/1/24
f 27/1/14 18/1/3 17/1/24
f 15/1/27 26/1/28 28/1/26
f 25/1/9 27/1/14 28/1/26
f 14/1/29 24/1/30 26/1/28
f 23/1/7 25/1/9 26/1/28
f 22/1/31 24/1/30 14/1/29
f 22/1/31 21/1/5 23/1/7
f 20/1/33 22/1/31 13/1/32
f 20/1/33 19/1/2 21/1/5
f 17/1/24 20/1/33 12/1/34
f 17/1/24 18/1/3 19/1/2
f 62/2/35 61/2/43 30/2/36
f 64/2/38 32/2/42 33/2/39
f 63/2/10 62/2/35 31/2/37
f 64/2/38 60/2/12 29/2/11
f 65/2/40 33/2/39 30/2/36
f 34/2/41 31/2/37 39/2/44
f 40/3/46 46/3/55 42/3/47
f 30/2/36 33/2/39 37/2/49
f 32/2/42 29/2/11 36/2/51
f 34/2/41 40/2/45 36/2/51
f 30/2/36 38/2/50 39/2/44
f 32/2/42 35/2/52 37/2/49
f 45/3/53 51/3/63 52/3/54
f 39/3/56 38/3/61 44/3/57
f 35/3/58 41/3/62 43/3/59
f 39/3/56 45/3/53 46/3/55
f 37/3/60 43/3/59 44/3/57
f 35/3/58 36/3/48 42/3/47
f 51/3/63 50/3/66 56/3/64
f 43/3/59 49/3/69 50/3/66
f 42/3/47 48/3/68 47/3/67
f 42/3/47 46/3/55 52/3/54
f 45/3/53 44/3/57 50/3/66
f 43/3/59 41/3/62 47/3/67
f 47/3/67 53/3/73 55/3/70
f 52/3/54 51/3/63 57/3/65
f 49/3/69 55/3/70 56/3/64
f 48/3/68 54/3/74 53/3/73
f 48/3/68 52/3/54 58/3/72
f 7/3/75 5/3/76 65/3/76
f 4/3/77 2/3/78 60/3/78
f 9/3/79 62/3/79 63/3/80
f 5/3/76 4/3/77 64/3/77
f 7/3/75 61/3/75 62/3/79
f 10/3/80 63/3/80 60/3/78
